<svg id="_0" data-name="0" xmlns="http://www.w3.org/2000/svg" width="194.2809mm" height="60.3094mm" viewBox="0 0 550.7176 170.9558">
  <g id="SPLINE">
    <path d="M1229.52,603.67l2-.08-14.31,3.18q-12.09,2.685-24.38,4.3-12.2851,1.62-24.67,2.16-13.6949.585-27.4,1.22c-31.94,1.46-63.89,3.03-95.89,4.53-48.35,2.27-96.81,4.47-145.7,5.26-29.8.49-59.75.49-90.07-1.08-14.24-.74-28.54-1.81-43.09-3.71-6.17-.81-12.22-1.7-18.44-2.85-5.71-1.06-11.77-2.47-17.52-4.04-4.15-1.14-8-2.26-12.16-3.8a75.2161,75.2161,0,0,1-12.67-6.01,48.0955,48.0955,0,0,1-13.23-11.08,29.1791,29.1791,0,0,1-5.94-12.44,27.4078,27.4078,0,0,1-.29-8.47c.02-.26.04-.51.07-.76.02-.19.04-.37.06-.56a36.2412,36.2412,0,0,1,3.62-10.1,58.4957,58.4957,0,0,1,9.87-13.27,80.1864,80.1864,0,0,1,10.98-9.4c3.62-2.63,7.41-5.17,11.4-7.67,4.76-2.99,9.59-5.69,14.32-8.11,5.79-2.97,11.65-5.74,17.6-8.36,10.14-4.46,20.3-8.34,30.57-11.93,17.86-6.23,35.91-11.44,54.06-15.99a929.6121,929.6121,0,0,1,104.85-19.58,1311.5877,1311.5877,0,0,1,161.95-10.71q10.41-.075,20.81-.01,7.02.045,14.03.27a283.49,283.49,0,0,1,95.62,19.81,675.8469,675.8469,0,0,0-141.48-12.86l-1.51.02-1.51.03-1.51.02-1.51.03-1.51.03-1.51.03-1.51.03-1.51.03-1.51.04-1.51.04-3.02.08-1.51.04-1.51.04-1.51.05-1.51.04-1.51.05-1.5.05-1.51.05-1.51.05-3.02.12-1.51.05-3.02.12-1.51.07-1.51.06-1.51.07-1.51.06-1.51.07-1.51.07-1.51.08-1.51.07-1.51.08-1.51.07-1.5.08-1.51.09-1.51.08-1.51.08-1.51.09-1.51.09-1.51.09-1.51.09-1.5.09-1.51.09-1.51.1-1.51.1-1.51.1-1.5.1-1.51.1-3.02.22-1.51.1-1.5.11-1.51.12-1.51.11-1.51.12-1.5.11-3.02.24-1.5.13-1.51.12-1.51.13-1.5.12-1.51.13-1.51.14-1.5.13-1.51.14-1.5.13-1.51.14-1.51.14-1.5.15-1.51.14-1.5.15-1.51.15-1.5.15-1.51.15-1.5.15-1.5.16-1.51.16-1.5.16-1.51.16-1.5.16-1.5.17-1.51.17-3,.34-1.51.17-1.5.18-1.5.17-1.51.18-1.5.19-3,.36-3,.38-1.51.19-1.5.2-1.5.19-1.5.2-1.5.2-3,.4-1.5.21-1.5.21-1.5.21-1.49.21-1.5.22-1.5.21-1.5.22-1.5.22-1.5.22-1.49.23-1.5.23-1.5.23-1.49.23-1.5.23-1.5.24-1.49.24-1.5.24-1.49.24-1.5.24-1.49.25-1.5.25-1.49.25-1.49.26-1.5.25-2.98.52-1.5.27-1.49.26-1.49.27-2.98.54-1.49.28-1.49.28-1.49.28-1.49.28-1.49.29-1.49.28-1.49.29-1.49.3-1.48.29-1.49.3-.75.15-.74.15-.74.15-.75.15-.74.15-.74.16-.74.15-.75.16-.74.15-.74.16-.74.15-.75.16-.74.16-.74.16-.74.15-.74.16-.75.16-.74.17-.74.16-.74.16-.74.16-.74.17-.74.16-.74.17-.75.16-.74.17-.74.16-.74.17-2.22.51-.74.17-.74.17-.74.17-.74.18-.74.17-.73.17-.74.18-.74.17-.74.18-1.48.36-.74.17-.74.18-.73.18-.74.18-.74.19-.74.18-.73.18-.74.19-.74.18-.74.19-.73.18-.74.19-.74.19-.73.18-1.48.38-.73.19-.74.2-.73.19-.74.19-.73.19-.74.2-.73.2-.74.19-.73.2-.74.2-.73.2-.74.19-.73.21-.73.2-.74.2-.73.2-.73.21-.74.2-.73.21-.73.2-.74.21-.73.21-.73.21-.73.21-.73.21-.74.21-.73.21-.73.21-.73.22-.73.21-.73.22-.73.22-.73.21-.73.22-1.46.44-.73.23-.73.22-.73.22-.73.23-.73.22-.72.23-.73.23-.73.22-.73.23-.72.23-.73.23-.73.24-.72.23-.73.23-.73.24-.72.24-.73.23-.72.24-.73.24-.72.24-.73.24-.72.24-.72.25-.73.24-.72.25-.72.25-.73.24-1.44.5-.72.25-.73.26-.72.25-.72.26-.72.25-.72.26-.72.26-.72.26-.72.26-.72.26-.72.27-.72.26-.72.27-.72.26-.71.27-.72.27-.72.27-.72.28-.71.27-.72.27-.71.28-.72.28-.71.27-.72.28-.71.28-.71.29-.71.28-.72.28-.71.29-.71.29-.71.28-.71.3-1.42.58-.71.3-.71.29-.71.3-.7.3-.71.3-.71.31-.71.3-.71.31-.7.31-.71.31-.71.32-.7.31-.71.32-.71.32-.7.32-.71.33-.7.32-.7.33-.71.33-.7.32-.7.34-.7.33-.7.33-.69.34-.7.33-.69.34-.7.34-.69.34-.69.34-.69.35-.69.34-.68.35-.69.35-.68.35-.69.35-.34.18-.34.17-.34.18-.34.18-.34.18-.35.18-.34.19-.34.18-.34.18-.34.19-.34.18-.34.19-.35.19-.34.19-.34.19-.34.19-.34.19-.35.19-.34.2-.34.19-.34.2-.35.19-.34.2-.34.2-.35.2-.34.21-.34.2-.35.2-.34.21-.34.21-.35.21-.34.2-.34.21-.35.22-.34.21-.34.21-.34.21-.35.22-.34.21-.34.22-.34.22-.34.21-.34.22-.34.22-.34.22-.34.22-.33.22-.34.22-.33.22-.34.22-.33.22-.33.22-.33.22-.33.22-.33.22-.32.22-.33.22-.32.22-.32.22-.32.22-.32.22-.32.22-.32.22-.31.22-.05.03-.04.03-.05.03-.04.03-.04.04-.05.03-.04.03-.05.03-.04.04-.05.03-.04.04-.05.03-.04.04-.05.03-.04.04-.05.03-.04.04-.05.04-.05.03-.04.04-.05.04-.05.03-.04.04-.05.04-.05.04-.04.04-.05.04-.05.04-.04.04-.05.04-.05.04-.05.04-.04.04-.05.04-.05.05-.05.04-.05.04-.05.04-.04.05-.05.04-.05.04-.05.05-.05.04-.05.05-.05.04-.04.05-.05.04-.05.05-.05.04-.05.05-.05.04-.1.1-.05.04-.05.05-.1.1-.05.04-.05.05-.05.05-.1.1-.05.05-.05.05-.05.05-.1.1-.05.05-.05.05-.06.05-.05.05-.05.05-.05.05-.05.06-.05.05-.05.05-.16.16-.05.05-.05.05-.05.06-.1.1-.05.06-.06.05-.05.06-.05.05-.05.05-.05.06-.11.11-.05.06-.05.05-.05.06-.05.05-.05.06-.06.05-.05.06-.05.06-.05.05-.05.06-.06.06-.05.06-.05.05-.1.12-.11.11-.05.06-.05.06-.05.06-.06.06-.05.06-.05.05-.05.06-.06.06-.05.06-.1.12-.05.06-.06.06-.05.06-.15.18-.06.06-.05.06-.05.06-.05.06-.11.12-.1.13-.1.12-.11.12-.1.13-.1.12-.11.12-.1.13-.1.12-.11.13-.1.12-.1.13-.11.12-.1.13-.1.13-.1.12-.1.13-.11.13-.1.13-.1.13-.1.12-.1.13-.2.26-.1.13-.1.13-.1.13-.2.26-.1.12-.1.13-.09.13-.1.13-.1.13-.1.13-.09.13-.2.26-.09.14-.1.13-.09.13-.1.13-.09.13-.1.13-.09.13-.09.13-.1.13-.09.13-.09.13-.09.13-.18.26-.09.13-.09.13-.09.13-.05.06-.04.07-.05.06-.04.07-.05.06-.04.07-.04.06-.05.07-.04.06-.04.07-.05.06-.04.07-.04.06-.05.06-.04.07-.04.06-.05.07-.04.06-.04.07-.04.06-.05.06-.04.07-.04.06-.04.07-.04.06-.05.07-.04.06-.04.06-.04.07-.04.06-.04.06-.04.07-.04.06-.04.07-.04.06-.05.06-.04.07-.04.06-.04.06-.04.07-.04.06-.03.06-.04.07-.04.06-.04.06-.04.07-.04.06-.08.12-.04.07-.03.06-.04.06-.04.06-.04.07-.04.06-.03.06-.04.06-.04.07-.04.06-.03.06-.04.06-.04.07-.03.06-.04.06-.04.06-.03.06-.04.06-.03.07-.04.06-.04.06-.03.06-.04.06-.03.06-.04.06-.03.07-.04.06-.03.06-.04.06-.03.06-.03.06-.04.06-.03.06-.04.06-.03.06-.03.06-.04.06-.03.06-.03.06-.03.06-.04.06-.03.06-.03.06-.03.06-.04.06-.03.06-.06.12-.03.06-.03.06-.03.06-.04.06-.03.06-.03.06-.03.06-.03.05-.03.06-.03.06-.03.06-.03.06-.03.06-.03.06-.03.05-.02.06-.03.06-.03.06-.03.06-.03.05-.03.06-.03.06-.02.06-.03.05-.03.06-.03.06-.02.06-.03.05-.03.06-.02.06-.03.06-.03.05-.02.06-.03.06-.03.05-.02.06-.03.06-.02.05-.03.06-.02.05-.03.06-.02.06-.03.05-.02.06-.03.05-.02.06-.02.05-.03.06-.02.06-.02.05-.03.06-.02.05-.02.06-.03.05-.02.06-.02.05-.02.06-.03.05-.02.06-.04.1-.02.06-.03.05-.02.06-.02.05-.02.06-.02.05-.02.05-.02.06-.02.05-.02.05-.02.06-.02.05-.02.05-.02.06-.02.05-.02.05-.02.06-.01.05-.02.05-.02.06-.02.05-.02.05-.01.05-.02.06-.02.05-.02.05-.01.05-.02.06-.02.05-.01.05-.04.1-.01.06-.02.05-.02.05-.01.05-.02.05-.01.05-.02.05-.01.06-.02.05-.01.05-.02.05-.01.05-.02.05-.01.05-.01.05-.02.05-.01.05-.01.06-.02.05-.02.1-.02.05-.01.05-.01.05-.01.05-.02.05-.02.1-.01.05-.03.15-.02.05-.01.05-.01.05-.01.04-.01.05-.01.05-.02.1-.01.05-.01.05-.01.05-.01.05v.05l-.01.05-.01.04-.01.05-.03.15v.05l-.01.05-.01.05-.01.04v.05l-.01.05-.02.1v.05l-.01.04v.05l-.01.05-.01.05v.05l-.01.04v.05l-.02.1v.05l-.01.04v.05l-.01.05v.09l-.01.05v.05l-.01.05v.09l-.01.05v.05c-.01.16-.02.33-.02.49a4.17,4.17,0,0,0,0,.5v.1l.01.11v.11l.01.1v.11l.01.11.01.11.01.1.02.22.01.1.01.11.01.1.02.11.01.11.01.1.02.11.02.11.01.1.02.11.02.1.04.22.02.1.02.11.02.1.02.11.02.1.03.11.02.11.03.1.02.11.03.1.02.11.03.1.03.11.03.11.03.1.03.11.03.1.03.11.03.11.04.1.03.11.03.1.04.11.03.11.04.1.03.11.04.1.04.11.04.11.04.1.08.22.04.1.04.11.04.1.04.11.05.11.04.1.04.11.05.11.05.11.04.1.05.11.05.11.04.1.05.11.05.11.05.1.1.22.05.11.05.1.06.11.05.11.05.11.06.1.05.11.06.11.05.11.06.1.06.11.05.11.06.11.06.1.06.11.12.22.06.1.18.33.06.1.07.11.06.11.07.11.06.11.07.1.06.11.07.11.06.11.07.1.07.11.07.11.06.11.07.1.07.11.14.22.07.1.08.11.07.11.07.11.07.1.08.11.14.22.08.1.07.11.08.11.08.1.07.11.08.11.08.1.07.11.08.11.08.1.08.11.08.11.08.1.08.11.08.11.08.1.08.11.09.1.08.11.08.1.08.11.09.11.08.1.09.11.08.1.09.11.08.1.09.11.09.1.08.11.09.1.09.11.09.1.08.1.09.11.09.1.09.11.09.1.09.1.09.11.09.1.1.1.09.11.09.1.09.1.1.11.09.1.09.1.1.1.09.11.1.1.09.1.1.1.09.1.1.11.1.1.09.1.2.2.09.1.1.1.1.1.1.1.1.1.1.1.1.1.1.1.1.1.1.1.1.1.1.1.1.1.11.1.1.09.2.2.11.1.1.1.11.09.1.1.1.1.11.09.1.1.11.1.1.09.11.1.11.1.1.09.11.1.11.09.1.1.11.09.11.1.11.09.11.1.1.09.11.09.11.1.11.09.11.1.11.09.22.18.11.1.11.09.12.09.11.09.11.1.11.09.11.09.12.09.11.09.11.09.11.09.12.09.11.09.12.09.11.09.11.09.12.09.11.09.12.08.11.09.12.09.11.09.12.09.12.08.11.09.12.09.12.08.11.09.12.09.12.08.11.09.12.08.48.34.23.17.24.17.24.17.24.16.24.16.24.17.24.16.25.16.24.16.24.16.25.16.24.16.25.15.25.16.24.15.25.15.5.3.25.15.25.15.25.15.25.15.25.14.25.15.25.14.26.14.25.14.25.14.26.14.25.14.26.14.25.13.26.14.25.13.52.26.25.13.52.26.26.12.26.13.25.12.26.13,1.3.6.26.11.26.12.26.11.27.12.26.11.26.11.26.11.52.22.27.11.26.1.26.11.26.1.27.1.26.1.26.1.26.1.27.1.26.1.26.1.27.09.26.09.26.1.26.09.27.09.26.09.26.09.27.09.26.08.26.09.27.08.26.09.26.08.26.08.27.08.52.16.27.08.26.08.26.07.26.08.26.07.27.08.52.14.26.07.78.21.27.07.26.06.26.07.26.06.26.07.52.12.26.06.26.06.25.06.26.06.52.12.26.05.26.06.25.05.26.06.26.05.25.06.26.05.26.05.25.05.26.05.25.05.26.05.25.05.26.05.25.04.25.05.26.05,2.05.36,2.05.35,2.04.33,2.06.32,2.06.31,2.06.3,2.07.29,2.07.28,2.07.27,2.06.26,2.07.24,2.06.24,2.06.22,4.1.42,2.06.19,2.05.19,2.05.18,2.05.18,2.05.16,2.06.16,2.05.15,2.05.15,2.05.14,2.05.13,2.04.13,2.05.12,2.05.12,2.04.11,2.04.1,2.05.1,2.04.09,2.04.09,2.04.09,2.04.08,2.04.07,2.04.07,2.04.07,2.04.06,2.04.06,2.04.06,2.03.05,2.04.05,2.03.04,2.04.04,2.03.04,2.03.03,2.04.03,2.03.03,2.03.02,2.03.02,2.03.02,2.03.01,2.03.01,2.03.01,2.03.01h8.11l2.02-.01,2.03-.01,2.02-.01,2.03-.01,2.02-.02,2.03-.01,2.02-.02,2.02-.03,2.03-.02,2.02-.03,2.02-.02,2.02-.03,2.02-.03,2.02-.04,2.02-.03,4.04-.08,2.02-.04,4.04-.08,2.01-.05,2.02-.04,4.04-.1,2.01-.05,2.02-.05,2.01-.06,2.02-.05,2.01-.06,2.02-.06,2.01-.05,2.02-.06,2.01-.06,2.02-.07,4.02-.12,2.01-.07,2.02-.07,2.01-.06,6.03-.21,2.02-.07,2.01-.07,2.01-.08,2.01-.07,2.01-.08,2.01-.07,2.01-.08,2.01-.08,2.01-.07,2.01-.08,2.01-.08,2-.08,2.01-.08,2.01-.08,2.01-.09,2.01-.08,2-.08,2.01-.09,2.01-.08,2.01-.09,2-.08,2.01-.09,2.01-.08,2-.09,2.01-.09,2.01-.09,2-.09,2.01-.08,2-.09,2.01-.09,2-.09,2.01-.09,2-.1,2.01-.09,2-.09,2.01-.09,2-.09,2.01-.09,2-.1,2.01-.09,2-.09,2.01-.1,2-.09,2-.09,2.01-.1,2-.09,2-.1,2.01-.09,2-.1,2-.09,2.01-.1,2-.09,2-.1,2.01-.09,2-.1,2-.09,2-.1,2.01-.1,2-.09,2-.1,2-.09,2.01-.1,2-.09,2-.1,2-.09,2-.1,2.01-.1,2-.09,2-.1,2-.09,2-.1,2.01-.09,2-.1,2-.09,2-.1,2-.09,2-.1,2.01-.09,2-.1,4-.18,2-.1,2-.09,2.01-.1,2-.09,2-.09,2-.09,2-.1,2-.09,2-.09,2.01-.09,2-.09,2-.1,2-.09,2-.09,2-.09,2.01-.09,2-.09,4-.18,2-.09,2-.08,2-.09,2.01-.09,2-.09,2-.08,2-.09,2-.09,2-.08,2.01-.09,2-.08,2-.09,2-.08,2-.09,2.01-.08,2-.08,2-.09,4-.16,2.01-.08,6-.24,2-.08,2.01-.08,2-.08,2-.08,2.01-.07,2-.08,2.01-.08,2-.07,2-.08,2-.07,2-.08Z" transform="translate(-685.2068 -453.9268)" fill="none" stroke="#000" stroke-linecap="round" stroke-linejoin="round" stroke-width="0.7087"/>
  </g>
</svg>
