<svg id="_0" data-name="0" xmlns="http://www.w3.org/2000/svg" width="145.3184mm" height="57.5317mm" viewBox="0 0 411.9262 163.082">
  <g id="SPLINE">
    <path d="M1127.61,613.7l-1.77.39a283.8931,283.8931,0,0,1-62.13,6.57c-35.27-.17-70.63-.56-106.2-1.8-27.76-.97-55.65-2.41-83.79-5.28-13.48-1.37-26.98-3.06-40.69-5.5-6.1-1.09-12.09-2.26-18.21-3.69-5.5-1.28-11.31-2.89-16.85-4.68-4.04-1.29-7.79-2.57-11.73-4.19a75.6792,75.6792,0,0,1-12.55-6.45,50.5587,50.5587,0,0,1-12.93-11.36,29.596,29.596,0,0,1-6.06-13.67,27.0182,27.0182,0,0,1,.12-8.47c.03-.25.06-.51.1-.76.03-.18.06-.37.09-.55a36.2483,36.2483,0,0,1,4.12-9.96,58.2343,58.2343,0,0,1,10.49-12.77,79.7256,79.7256,0,0,1,11.44-8.88c3.74-2.45,7.65-4.81,11.75-7.12,4.91-2.76,9.86-5.22,14.69-7.41q8.925-4.05,18.05-7.54c10.39-3.99,20.77-7.4,31.26-10.5,20.11-5.95,40.37-10.65,60.73-14.56a959.6967,959.6967,0,0,1,109.98-14.18q32.25-2.4,64.54-3.05a283.2886,283.2886,0,0,1,73.58,10.37,915.2614,915.2614,0,0,0-140.89,0l-.95.07-.95.08-.95.07-.95.08-.95.07-.95.08-.95.08-.95.08-.95.08-1.9.16-.95.09-.95.08-.95.08-.95.09-.95.09-.95.08-.95.09-.95.09-.95.09-.95.09-.95.09-.95.09-.95.09-.94.1-.95.09-.95.1-.95.09-.95.1-.95.1-.95.1-.95.1-.94.1-.95.1-.95.1-.95.11-.95.1-.95.11-.94.1-.95.11-.95.11-.95.1-.95.11-.94.11-.95.12-.95.11-.95.11-.94.12-.95.11-.95.12-.95.11-.94.12-.95.12-.95.12-.94.12-.95.12-.95.12-.94.13-.95.12-.95.13-.94.12-.95.13-.95.13-.94.13-.95.13-.94.13-.95.13-.95.13-.94.14-.95.13-.94.14-.95.13-.94.14-.95.14-.94.14-.95.14-.94.14-.95.15-.94.14-.94.15-.95.14-.94.15-.95.15-.94.15-.94.15-.95.15-.94.15-.95.15-.94.16-.94.15-.94.16-.95.16-.94.16-.94.16-.95.16-.94.16-.94.16-.94.17-.94.16-.95.17-.94.16-1.88.34-.94.17-.94.18-1.88.34-.94.18-.94.17-1.88.36-.94.18-1.88.36-.94.19-.94.18-1.88.38-.94.18-.94.19-.94.2-.93.19-.94.19-.94.2-.94.19-.93.2-.94.2-1.88.4-.93.2-.94.2-.93.21-.94.2-.94.21-.93.21-.94.21-.93.21-.94.21-.93.22-.94.21-.93.22-.93.22-.94.22-.93.22-.93.22-.94.23-.93.22-1.86.46-.94.23-1.86.46-.93.24-.93.23-4.65,1.2-.93.25-.93.24-1.86.5-.92.25-.47.13-.46.13-.47.12-.46.13-.46.13-.47.13-.92.26-.47.12-.46.13-.46.13-.46.14-.47.13-.46.13-.46.13-.46.13-.47.14-.46.13-.46.13-.46.14-.47.13-.46.14-.46.13-.46.14-.46.14-.47.13-.46.14-.46.14-.46.14-.92.28-.46.14-.46.14-.47.14-.46.14-.46.14-.46.14-.46.15-.46.14-.46.14-.46.15-.46.14-.46.15-.46.15-.46.14-.46.15-.46.15-.46.14-.46.15-.46.15-.46.15-.92.3-.46.15-.45.15-.46.15-.46.16-.46.15-.46.15-.45.16-.46.15-.46.16-.46.15-.45.16-.46.15-.46.16-.45.16-.46.15-.46.16-.45.16-.46.16-.45.16-.46.16-.45.16-.46.16-.46.17-.45.16-.46.16-.45.17-.46.16-.45.17-.46.17-.45.16-.45.17-.46.17-.45.17-.46.17-.45.17-.46.17-.45.18-.46.17-.45.17-.45.18-.46.17-.45.18-.46.18-.45.18-.45.17-.46.18-.45.18-.46.19-.45.18-.45.18-.45.18-.46.19-.45.18-.45.19-.45.18-.9.38-.46.18-.9.38-.44.19-.45.19-.45.19-.9.38-.44.19-.45.2-.45.19-.44.19-.45.2-.44.19-.44.2-.45.19-.44.2-.44.2-.44.2-.45.19-.88.4-.44.21-.88.4-.44.21-.44.2-.88.42-.44.21-.44.21-.44.22-.45.21-.22.11-.22.11-.22.1-.44.22-.22.11-.22.11-.22.12-.22.11-.22.11-.23.11-.22.11-.22.12-.22.11-.22.11-.22.12-.22.11-.23.12-.22.11-.22.12-.22.12-.22.12-.23.11-.22.12-.22.12-.22.12-.23.12-.22.12-.22.12-.22.12-.22.12-.23.12-.44.25-.45.24-.88.5-.45.25-.88.5-.44.26-.44.25-.44.26-.44.25-.43.26-.44.25-.22.13-.21.13-.22.13-.21.13-.22.13-.21.13-.22.12-.21.13-.21.13-.22.13-.21.13-.21.13-.21.13-.42.26-.21.12-.42.26-.2.13-.42.26-.2.13-.21.13-.2.13-.05.02-.04.03-.05.03-.04.03-.05.03-.04.03-.05.03-.05.03-.04.04-.05.03-.05.03-.04.03-.05.03-.05.04-.04.03-.05.03-.05.04-.05.03-.04.04-.05.03-.05.04-.05.03-.05.04-.05.04-.04.03-.05.04-.05.04-.05.03-.1.08-.05.04-.05.04-.05.04-.05.04-.05.03-.05.04-.05.04-.05.05-.05.04-.1.08-.05.04-.1.08-.05.05-.05.04-.06.04-.05.04-.05.05-.05.04-.05.05-.05.04-.05.04-.06.05-.05.04-.05.05-.05.04-.05.05-.06.05-.05.04-.05.05-.05.04-.06.05-.05.05-.05.05-.06.04-.15.15-.06.04-.05.05-.05.05-.06.05-.05.05-.05.05-.06.05-.05.05-.06.05-.05.05-.05.05-.06.05-.1.1-.06.05-.05.06-.06.05-.1.1-.06.05-.11.11-.05.05-.06.05-.05.06-.06.05-.05.05-.05.06-.06.05-.11.11-.05.05-.28.28-.05.05-.05.06-.06.05-.05.06-.06.05-.05.06-.06.05-.05.06-.06.06-.05.05-.06.06-.05.06-.06.05-.05.06-.17.17-.05.06-.17.17-.05.06-.06.06-.05.06-.11.11-.11.12-.22.24-.11.11-.11.12-.33.36-.1.12-.33.36-.11.12-.11.13-.1.12-.11.12-.11.12-.11.13-.1.12-.11.12-.11.13-.1.12-.11.12-.11.13-.1.12-.11.13-.1.12-.11.12-.1.13-.11.12-.1.13-.11.12-.1.13-.1.12-.11.13-.1.13-.1.12-.1.13-.1.12-.11.13-.1.12-.2.26-.1.12-.1.13-.09.12-.1.13-.1.12-.2.26-.09.12-.1.13-.1.12-.09.13-.05.06-.05.06-.04.07-.1.12-.05.06-.04.07-.1.12-.04.06-.05.07-.05.06-.04.06-.05.06-.04.07-.05.06-.05.06-.04.06-.05.06-.04.07-.05.06-.04.06-.05.06-.04.07-.05.06-.04.06-.05.06-.04.06-.05.07-.04.06-.04.06-.05.06-.04.06-.04.06-.05.07-.08.12-.05.06-.04.06-.04.06-.05.06-.04.07-.04.06-.04.06-.04.06-.05.06-.04.06-.08.12-.04.06-.04.06-.05.07-.04.06-.08.12-.04.06-.08.12-.04.06-.08.12-.04.06-.04.06-.04.06-.08.12-.04.06-.03.06-.04.06-.04.06-.04.06-.04.06-.04.06-.03.06-.04.06-.04.06-.04.06-.03.05-.04.06-.04.06-.03.06-.04.06-.04.06-.03.06-.08.12-.03.05-.04.06-.03.06-.04.06-.03.06-.04.06-.03.05-.04.06-.03.06-.04.06-.03.06-.04.05-.03.06-.03.06-.04.06-.03.06-.04.05-.03.06-.03.06-.03.05-.04.06-.03.06-.03.06-.03.05-.04.06-.03.06-.03.05-.03.06-.03.06-.03.05-.04.06-.03.06-.03.05-.03.06-.03.05-.03.06-.03.06-.03.05-.03.06-.03.05-.03.06-.03.06-.03.05-.02.06-.03.05-.03.06-.03.05-.03.06-.03.05-.02.06-.03.05-.03.06-.03.05-.02.06-.03.05-.03.06-.03.05-.02.06-.03.05-.02.05-.03.06-.03.05-.02.06-.03.05-.02.05-.03.06-.02.05-.03.06-.02.05-.03.05-.02.06-.03.05-.02.05-.02.06-.03.05-.02.05-.03.05-.02.06-.04.1-.03.06-.04.1-.02.05-.03.06-.02.05-.04.1-.02.05-.02.06-.02.05-.03.05-.04.1-.02.06-.02.05-.02.05-.02.05-.04.1-.02.05-.01.06-.04.1-.02.05-.02.05-.02.05-.02.05-.01.05-.04.1-.02.05-.01.05-.02.05-.02.05-.01.05-.02.06-.02.05-.01.05-.04.1-.01.05-.02.05-.01.04-.02.05-.01.05-.02.05-.01.05-.02.05-.01.05-.02.05-.01.05-.01.05-.02.05-.01.05-.02.05-.01.05-.01.05-.02.04-.01.05-.01.05-.01.05-.02.05-.02.1-.01.05-.01.04-.01.05-.02.05-.01.05-.01.05-.02.1-.01.04-.02.1-.01.05-.01.05-.01.04-.04.2-.01.04-.02.1v.05l-.01.04-.02.1-.01.05v.04l-.03.15v.04l-.02.1v.05l-.01.04-.01.05v.05l-.01.05-.01.04v.05l-.01.05c-.02.16-.03.33-.04.49-.01.17-.02.33-.02.49v.11l-.01.11v.11l.01.1v.33l.01.1v.22l.01.1.01.11v.11l.01.1.01.11.01.11.01.1.01.11.01.11.02.1.01.11.01.11.02.1.01.11.02.11.01.1.02.11.02.11.02.1.04.22.02.11.02.1.02.11.02.11.03.1.02.11.02.11.03.1.02.11.03.11.03.11.03.1.02.11.03.11.03.11.03.1.03.11.03.11.04.11.03.11.03.1.04.11.03.11.04.11.03.11.04.1.03.11.04.11.04.11.04.11.04.11.04.11.04.1.04.11.08.22.05.11.04.11.04.11.05.11.04.11.05.11.04.11.05.11.05.11.05.11.04.11.05.11.05.11.05.11.1.22.06.11.05.11.05.11.05.11.06.11.05.11.06.11.05.11.06.11.05.11.06.11.12.22.05.11.06.11.18.33.06.12.07.11.18.33.07.11.12.22.07.11.06.11.14.22.06.11.07.11.07.11.07.12.06.11.07.11.07.11.21.33.07.11.08.11.07.11.07.11.07.11.08.11.07.11.08.11.07.11.08.11.07.11.08.11.07.11.08.11.16.22.07.11.08.11.16.22.08.1.08.11.16.22.09.11.08.11.16.22.09.1.16.22.09.11.08.11.09.11.08.1.09.11.08.11.09.11.09.1.08.11.09.11.09.11.09.1.09.11.09.11.09.1.09.11.09.11.09.1.09.11.09.1.09.11.09.11.09.1.1.11.09.1.09.11.1.1.09.11.1.1.09.11.1.1.09.1.1.11.09.1.1.11.1.1.09.1.1.11.1.1.09.1.1.11.3.3.1.11.1.1.1.1.3.3.1.1.1.11.1.1.11.1.1.1.1.1.11.1.2.2.11.1.1.1.1.09.11.1.1.1.11.1.1.1.11.1.11.09.1.1.11.1.11.1.1.09.11.1.11.1.1.09.11.1.11.1.11.09.11.1.11.09.11.1.11.09.11.1.11.09.11.1.11.09.11.09.11.1.11.09.11.09.11.1.11.09.12.09.11.1.11.09.11.09.12.09.11.09.11.09.12.09.22.19.23.18.23.18.23.17.23.18.23.18.24.17.23.18.23.17.24.17.23.17.24.17.24.17.23.17.48.34.24.16.24.17.24.16.48.32.25.16.24.16.24.16.25.16.24.15.25.16.24.15.25.16.25.15.24.15.25.15.25.15.25.14.25.15.25.14.25.15.5.28.25.15.25.13.5.28.26.14.25.13.25.14.26.13.5.26.26.13.25.13.26.13.25.13.26.12.25.13.52.24.25.13.26.12.26.11.25.12.26.12.26.12.25.11.26.11.26.12.26.11.26.11.25.11.52.22.26.1.26.11.26.1.25.1.26.11.26.1.26.1.26.1.26.1.26.09.25.1.26.1.26.09.26.09.26.1.52.18.25.09.26.08.26.09.26.09.26.08.26.09.25.08.26.09.26.08.26.08.25.08.26.08.52.16.25.07.26.08.26.07.25.08.26.07.25.07.26.08.26.07.25.07.26.07.25.07.26.06.25.07.26.07.25.06.25.07.26.06.25.07.25.06.26.06.25.06.25.07.25.06.26.06.25.06.25.05.25.06.61.14.61.14.61.14.61.13.61.14.61.13,1.83.39.61.13.61.12.61.13.61.12.61.13.61.12.62.12.61.12.62.12.61.12.62.12.61.12.62.11.61.12.62.11.62.12.61.11.62.11.62.11.62.11.61.11,1.24.22.61.1.62.11.61.1.62.11.62.1.61.1.62.1.61.1.62.09.61.1.61.1.62.09.61.09.61.1.62.09.61.09.61.09.62.09.61.09.61.09.61.08.62.09.61.09.61.08.61.09.62.08.61.08.61.09.62.08.61.08.61.08.62.08.61.08.61.08.62.08.61.07.61.08.62.08.61.07.61.08.62.07.61.08.61.07.62.07.61.08.61.07.61.07.62.07,1.22.14.62.07.61.06,1.22.14.62.06.61.07.61.07,1.22.12.62.07,1.22.12,1.22.13,1.23.12,1.22.12,1.22.12,1.22.11,1.23.12,1.22.11,1.22.11,1.23.11,1.22.11,1.22.11,1.22.1,1.22.1,1.23.11,1.22.09,1.22.1,1.22.1,1.22.09,1.22.1,1.22.09,1.22.09,1.22.09,1.22.09,1.22.09,1.22.08,1.22.08,1.22.09,1.22.08,1.22.08,1.22.08,1.22.08,1.22.07,1.22.08,1.22.07,1.21.08,1.22.07,1.22.07,1.22.07,1.22.07,1.21.06,1.22.07,1.22.07,1.22.06,1.21.06,1.22.07,1.22.06,1.21.06,1.22.06,1.22.06,1.21.05,1.22.06,1.22.06,1.21.05,1.22.06,1.21.05,1.22.05,1.21.05,1.22.05,1.21.05,1.22.05,1.21.05,1.22.05,1.21.05,1.22.04,1.21.05,1.22.04,1.21.05,1.21.04,1.22.04,1.21.04,1.22.04,1.21.04,1.21.04,1.22.04,1.21.04,1.21.04,1.22.03,1.21.04,1.21.04,1.21.03,1.22.04,1.21.03,1.21.03,1.21.04,1.22.03,1.21.03,1.21.03,1.21.03,1.21.03,1.22.03,1.21.03,1.21.03,1.21.02,1.21.03,1.21.03,2.42.05,2.43.05,2.42.05,2.42.04,2.42.05,2.42.04,4.84.08,2.42.04,2.42.03,2.42.04,2.41.03,2.42.03,2.42.03,2.42.03,2.42.03,2.41.03,2.42.02,2.41.03,2.42.02,2.42.02,2.41.02,2.42.02,2.41.02,2.42.02,2.41.01,2.42.02,2.41.01,2.41.02,2.42.01,2.41.01,2.41.01,2.42.01,2.41.01,2.41.01,2.41.01,2.42.01h2.41l2.41.01,2.41.01h2.41l2.41.01h2.41l4.83.01,4.82.01h9.64l4.82.01Z" transform="translate(-754.0681 -457.9356)" fill="none" stroke="#000" stroke-linecap="round" stroke-linejoin="round" stroke-width="0.7087"/>
  </g>
</svg>
