<svg id="_0" data-name="0" xmlns="http://www.w3.org/2000/svg" width="154.645mm" height="56.8016mm" viewBox="0 0 438.3638 161.0125">
  <g id="SPLINE">
    <path d="M1045.55,610.21q63.465-3.54,126.83-8.49a283.5712,283.5712,0,0,1-72.5,13.95q-62.655,3.72-125.43,3.98-14.55-.06-29.16-.31c-27.78-.47-55.69-1.41-83.88-3.78-13.49-1.13-27.03-2.58-40.77-4.77-6.12-.98-12.13-2.05-18.28-3.36-5.52-1.19-11.35-2.7-16.93-4.38-4.06-1.23-7.83-2.44-11.8-3.98a75.7173,75.7173,0,0,1-12.66-6.23,50.5243,50.5243,0,0,1-13.13-11.12,29.6182,29.6182,0,0,1-6.31-13.57,27.3441,27.3441,0,0,1-.03-8.47c.02-.25.05-.51.09-.76.02-.18.05-.37.08-.55a36.1782,36.1782,0,0,1,3.94-10.03,57.73,57.73,0,0,1,10.26-12.96,79.375,79.375,0,0,1,11.28-9.08c3.69-2.52,7.56-4.95,11.62-7.33,4.85-2.84,9.76-5.39,14.56-7.68q8.835-4.2,17.9-7.85c10.32-4.17,20.65-7.77,31.07-11.06,20-6.31,40.18-11.37,60.46-15.64a948.5165,948.5165,0,0,1,101.66-15.37q48.345-2.73,96.78-1.78a283.6317,283.6317,0,0,1,77.64,12.43q-68.9551-5.415-138.17-4.69-16.74.18-33.44,1.34-16.695,1.17-33.3,3.31l-.81.11-.8.1-.81.11-.81.1-.8.11-.81.11-.8.11-.81.11-.8.11-1.62.22-.8.11-.81.11-.8.11-.81.12-.8.11-.81.12-.8.11-.81.12-.8.12-.81.11-.8.12-.8.12-.81.12-.8.12-.81.12-.8.13-.81.12-.8.12-.8.13-.81.12-.8.13-.81.12-.8.13-.8.13-.81.12-.8.13-.8.13-.81.13-.8.13-.8.14-.81.13-.8.13-.8.14-.8.13-.81.14-.8.13-1.6.28-.81.13-.8.14-1.6.28-.8.15-.8.14-.81.14-.8.14-.8.15-.8.14-.8.15-.8.15-.8.14-.8.15-.81.15-.8.15-.8.15-.8.15-.8.16-1.6.3-.8.16-.8.15-.8.16-.8.15-.8.16-.79.16-.8.16-.8.16-.8.16-.8.16-.8.17-.8.16-.8.16-.79.17-.8.17-.8.16-1.6.34-.79.17-.8.17-1.6.34-.79.17-.8.18-.8.17-.79.18-.8.18-.8.17-.79.18-.8.18-.79.18-.8.18-.8.18-.79.19-.8.18-.79.18-.8.19-.79.19-.8.18-.79.19-.79.19-.8.19-.79.19-.8.2-.79.19-.79.19-.8.2-.79.19-.79.2-.79.2-.8.2-.79.2-.79.2-.79.2-.79.2-.8.21-.79.2-.79.21-.79.21-.79.2-.79.21-.79.21-.79.22-.79.21-.79.21-.79.22-.79.21-.79.22-.79.22-.79.22-.78.22-.79.22-.79.22-.79.23-.78.22-.79.23-.79.22-.78.23-.79.23-.79.23-.78.23-.79.24-.78.23-.79.24-.78.23-.79.24-.78.24-.78.24-.79.24-.78.24-.78.25-.79.24-.39.13-.39.12-.39.13-.39.12-.39.12-.39.13-.4.13-.39.12-.39.13-.39.12-.39.13-.39.13-.39.13-.39.12-.39.13-.39.13-1.17.39-.39.13-1.17.39-.39.13-.39.13-.39.14-.39.13-.39.13-.39.13-.39.14-.39.13-.39.14-.38.13-.39.14-.39.13-.39.14-.39.13-.39.14-.38.14-.39.13-.39.14-.39.14-.38.14-.39.13-.78.28-.38.14-.39.14-.39.14-.38.14-.39.14-.39.15-.38.14-.39.14-.38.14-.39.15-.39.14-.38.14-.39.15-.38.14-.39.15-.38.14-.39.15-.38.15-.39.14-.38.15-.39.15-.38.15-.39.15-.38.15-.39.15-.38.15-.39.15-.38.15-.39.15-.38.16-.38.15-.39.15-.38.16-.39.16-.38.15-.39.16-.38.15-.38.16-.39.16-.38.16-.39.16-.38.16-.38.16-.39.16-.38.16-.38.16-.39.16-.38.17-.38.16-.39.17-.38.16-.38.16-.38.17-.38.17-.38.16-.39.17-.38.16-1.14.51-.38.17-.37.17-.38.16-.38.17-.38.17-.38.17-.37.18-.38.17-.38.17-.37.17-.38.17-.37.18-.38.17-.37.17-.38.18-.37.17-.38.18-.37.17-.37.18-.38.18-.37.17-.37.18-.37.18-.38.18-.74.36-.37.19-.37.18-.38.19-.37.18-.37.19-.37.18-.37.19-.38.19-.37.19-.37.2-.37.19-.38.19-.37.2-.37.2-.38.2-.37.2-.38.2-.37.2-.37.2-.38.21-.37.21-.38.2-.37.21-.38.21-.37.22-.38.21-.37.21-.38.22-.37.21-.38.22-.37.22-.38.22-.37.22-.37.22-.38.22-.37.23-.37.22-.37.22-.37.23-.37.22-.36.23-.37.22-.36.23-.37.22-.36.23-.36.22-.18.12-.18.11-.18.11-.18.12-.18.11-.17.11-.18.11-.18.12-.18.11-.17.11-.18.12-.17.11-.18.11-.17.12-.18.11-.17.11-.18.12-.17.11-.17.11-.18.11-.04.03-.04.03-.05.03-.04.03-.05.03-.04.04-.05.03-.05.03-.04.03-.05.03-.04.04-.05.03-.05.03-.04.04-.05.03-.05.04-.04.03-.05.04-.05.03-.04.04-.05.03-.05.04-.05.04-.04.03-.05.04-.05.04-.05.04-.05.04-.05.03-.04.04-.05.04-.05.04-.05.04-.1.08-.05.04-.05.04-.05.05-.05.04-.05.04-.05.04-.05.04-.05.05-.05.04-.05.04-.05.05-.1.08-.05.05-.05.04-.05.05-.05.04-.05.05-.05.04-.05.05-.06.04-.05.05-.05.05-.05.04-.05.05-.05.05-.06.05-.05.04-.05.05-.15.15-.06.05-.05.05-.05.04-.05.05-.06.05-.05.05-.05.05-.05.05-.06.05-.05.06-.05.05-.05.05-.06.05-.05.05-.05.05-.06.05-.05.06-.05.05-.06.05-.05.05-.05.06-.06.05-.05.05-.05.06-.06.05-.05.05-.05.06-.06.05-.05.06-.11.11-.05.05-.05.06-.06.05-.05.06-.22.22-.05.06-.16.16-.05.06-.17.17-.05.06-.05.06-.06.05-.05.06-.05.06-.06.06-.05.06-.06.05-.05.06-.05.06-.06.06-.05.06-.06.06-.05.06-.11.11-.1.12-.11.12-.11.12-.11.12-.1.12-.22.24-.1.12-.11.13-.11.12-.1.12-.11.12-.11.13-.1.12-.11.12-.11.13-.1.12-.11.12-.1.13-.11.12-.1.13-.11.12-.1.13-.1.13-.11.12-.1.13-.1.12-.11.13-.1.13-.1.12-.11.13-.1.13-.1.12-.1.13-.1.13-.1.13-.1.12-.2.26-.1.13-.1.12-.1.13-.1.13-.09.13-.1.12-.1.13-.1.13-.09.13-.1.12-.09.13-.1.13-.09.12-.1.13-.09.13-.09.13-.1.12-.04.07-.05.06-.05.06-.04.07-.05.06-.04.06-.05.07-.04.06-.05.06-.05.07-.04.06-.05.06-.04.07-.05.06-.04.06-.04.07-.05.06-.04.06-.05.06-.04.07-.05.06-.04.06-.04.07-.05.06-.04.06-.04.06-.05.07-.08.12-.04.06-.05.07-.04.06-.04.06-.04.06-.05.07-.04.06-.08.12-.04.07-.04.06-.05.06-.04.06-.08.12-.04.07-.08.12-.04.06-.04.06-.04.06-.04.07-.04.06-.04.06-.08.12-.04.06-.08.12-.04.07-.03.06-.04.06-.08.12-.04.06-.03.06-.04.06-.08.12-.03.06-.04.06-.04.06-.04.06-.03.06-.04.06-.04.06-.03.06-.04.06-.03.06-.04.06-.03.06-.04.06-.04.06-.03.06-.04.06-.03.06-.04.06-.03.06-.03.06-.04.05-.03.06-.04.06-.03.06-.03.06-.04.06-.03.06-.03.05-.04.06-.03.06-.03.06-.03.06-.04.06-.03.05-.06.12-.03.06-.04.05-.03.06-.03.06-.03.06-.03.05-.06.12-.03.06-.03.05-.03.06-.03.06-.03.05-.03.06-.03.06-.03.05-.03.06-.03.06-.03.05-.03.06-.02.06-.03.05-.03.06-.03.05-.03.06-.02.06-.03.05-.03.06-.03.05-.02.06-.03.05-.03.06-.02.05-.03.06-.03.05-.02.06-.03.05-.02.06-.03.05-.02.06-.03.05-.02.06-.03.05-.02.06-.03.05-.02.06-.03.05-.02.05-.02.06-.03.05-.02.06-.02.05-.03.05-.02.06-.02.05-.02.05-.03.06-.02.05-.02.05-.02.06-.03.05-.02.05-.02.06-.02.05-.04.1-.02.06-.02.05-.02.05-.02.05-.02.06-.02.05-.02.05-.02.05-.02.06-.02.05-.06.15-.02.05-.01.06-.02.05-.02.05-.04.1-.01.05-.02.05-.02.05-.02.06-.01.05-.02.05-.02.05-.01.05-.02.05-.01.05-.02.05-.02.05-.01.05-.02.05-.01.05-.02.05-.01.05-.02.05-.01.05-.02.05-.01.05-.01.05-.02.05-.01.05-.02.05-.01.05-.01.05-.02.05-.02.1-.01.05-.02.05-.03.15-.01.05-.02.04-.03.15-.01.05-.03.15-.01.04-.01.05-.01.05-.01.05-.02.1-.01.05-.01.04-.01.05-.01.05-.01.05-.01.05v.04l-.01.05-.01.05-.01.05-.01.05v.04l-.01.05-.02.1v.05l-.01.04-.01.05v.05l-.01.05-.01.04v.05l-.01.05v.05l-.01.04-.01.05v.05l-.01.05v.04l-.01.05v.05c-.02.16-.03.33-.04.49-.01.17-.01.33-.01.5v.32l.01.11v.21l.01.11v.1l.01.11.01.11v.1l.01.11.01.11.01.1.01.11.01.11.02.1.01.11.01.11.02.1.01.11.02.11.01.1.02.11.02.1.02.11.02.11.01.1.03.11.02.11.02.1.02.11.02.11.03.1.02.11.03.11.02.1.03.11.03.11.02.1.03.11.03.11.03.1.03.11.03.11.03.1.03.11.04.11.03.11.03.1.04.11.03.11.04.1.04.11.03.11.04.11.04.11.04.1.04.11.04.11.04.11.04.1.04.11.04.11.05.11.08.22.05.1.04.11.1.22.04.11.05.11.05.1.05.11.05.11.15.33.05.11.05.11.05.11.06.11.05.11.05.1.06.11.05.11.06.11.06.11.05.11.06.11.06.11.06.11.05.11.06.11.06.11.12.22.07.11.06.11.12.22.07.11.06.11.06.1.07.11.06.11.07.11.07.11.06.11.07.11.07.11.07.11.07.11.06.11.07.11.14.22.08.11.07.11.07.11.07.1.07.11.08.11.07.11.08.11.07.11.07.11.16.22.07.1.08.11.08.11.07.11.08.11.08.11.08.11.08.1.08.11.08.11.16.22.08.1.08.11.09.11.08.11.08.1.08.11.09.11.08.11.09.1.08.11.09.11.08.1.09.11.09.11.08.1.09.11.09.11.09.1.08.11.09.1.09.11.09.1.09.11.09.11.09.1.09.11.1.1.09.11.09.1.09.11.09.1.1.1.09.11.1.1.09.11.09.1.1.1.09.11.2.2.09.11.1.1.09.1.1.1.1.11.1.1.1.1.09.1.1.1.1.11.7.7.11.1.1.1.3.3.11.1.1.1.1.1.11.1.1.1.11.09.1.1.11.1.1.1.11.1.1.09.11.1.11.1.1.09.11.1.11.1.1.09.11.1.11.09.22.2.1.09.11.1.11.09.11.1.11.09.11.09.11.1.11.09.11.09.11.1.12.09.11.09.11.1.11.09.22.18.12.09.11.1.11.09.12.09.11.09.11.09.12.09.11.09.12.09.22.18.12.09.11.09.24.17.23.18.23.17.23.18.24.17.23.17.24.17.23.18.24.16.48.34.24.17.24.16.24.17.24.16.24.16.24.16.24.16.25.16.24.16.25.16.24.15.25.16.24.15.25.15.25.15.5.3.24.15.25.15.25.15.25.14.25.15.26.14.75.42.25.14.26.14.25.13.26.14.25.13.25.14.26.13.25.13.52.26.25.13.26.12.26.13.25.12.26.12.26.13.25.12.26.12.26.12.26.11.26.12.26.12.25.11.26.12.26.11.26.11.52.22.26.11.26.1.26.11.26.1.26.11.26.1.26.1.52.2.26.1.26.1.26.1.26.09.26.1.52.18.26.09.26.1.26.09.26.08.26.09.26.09.26.08.26.09.26.08.26.09.26.08.52.16.26.08.26.08.26.07.26.08.26.08.26.07.26.08.26.07.25.07.26.07.26.07.26.07.25.07.52.14.26.06.25.07.26.06.26.07.25.06.26.06.25.07.26.06.25.06.26.06.25.06.26.06.25.05.25.06.26.06.25.05.25.06.26.05.25.06.25.05.26.06.25.05.26.06.26.05.25.05.26.05.25.06.26.05.26.05.25.05.26.05.25.06.52.1.25.05.26.05,1.02.2.51.09.52.1.51.1.51.09.52.1.51.09.52.1.51.09.52.1.51.09.52.09.51.09.52.09.52.09.51.09.52.09.52.09.52.08.52.09.51.09.52.08.52.09.52.08.52.08.51.09.52.08.52.08.52.08.52.08.51.08.52.08.52.07.51.08.52.08.52.07.51.08.52.07.52.07.51.08.52.07.51.07.52.07.51.07.52.07.51.07.52.06.51.07.52.07.51.06.51.07.52.06.51.07.52.06.51.07.52.06,1.02.12.52.07.51.06.52.06.51.06.52.06,1.02.12.52.05.51.06.52.06.51.06.52.05.51.06.52.06.51.05.52.06,1.02.1.52.06.51.05.52.05.51.06.52.05.51.05.52.05.51.05.51.05.52.05.51.05.52.05.51.05.51.05.52.05.51.04.51.05.52.05.51.04.52.05.51.05.51.04.52.05.51.04.51.04.51.05.52.04.51.04.51.05.52.04.51.04.51.04.52.04.51.05,1.02.08.52.04.51.04.51.04.51.03.52.04.51.04,1.02.08.52.04.51.03.51.04.52.04.51.03.51.04.51.03.51.04.52.04.51.03.51.04.51.03.52.03.51.04.51.03.51.03.51.04.52.03.51.03.51.03.51.04.51.03.52.03.51.03.51.03.51.03.51.03.52.03.51.03.51.03.51.03.51.03.51.03.51.03.52.03.51.02.51.03.51.03.51.03.51.02.51.03.51.03.52.02.51.03.51.03.51.02.51.03.51.02.51.03.51.02.51.03,1.03.05,1.02.04,1.02.05,1.02.05,1.02.04,1.02.05,1.02.04,1.03.04,1.02.05,1.02.04,1.02.04,1.02.04,1.02.04,1.02.03,1.02.04,1.02.04,1.02.03,1.02.04,1.02.03,1.02.04,1.02.03,1.02.03,1.02.04,1.02.03,1.01.03,1.02.03,1.02.03,1.02.03,1.02.02,1.02.03,1.02.03,1.01.02,1.02.03,1.02.03,1.02.02,1.02.02,1.02.03,1.01.02q27.555.615,55.11.15Q1018.03,611.745,1045.55,610.21Z" transform="translate(-740.8306 -458.9919)" fill="none" stroke="#000" stroke-linecap="round" stroke-linejoin="round" stroke-width="0.7087"/>
  </g>
</svg>
