<svg id="_0" data-name="0" xmlns="http://www.w3.org/2000/svg" width="155.1412mm" height="50.6227mm" viewBox="0 0 439.7703 143.4974">
  <g id="POLYLINE">
    <path d="M938.57,603.49q116.52-3.63,232.84-12.04l-18.68,4.44a283.4966,283.4966,0,0,1-48.23,7.14q-93.84,5.745-187.83,7.79-6.27.135-12.54-.01-6.27-.135-12.53-.56c-10.54-.7-21.11-1.55-31.72-2.61-13.48-1.35-26.99-3.01-40.7-5.43-6.1-1.08-12.1-2.24-18.22-3.66-5.5-1.27-11.31-2.87-16.86-4.65-4.03-1.29-7.79-2.56-11.73-4.17a75.4709,75.4709,0,0,1-12.56-6.43,50.6667,50.6667,0,0,1-12.95-11.33,29.6488,29.6488,0,0,1-6.09-13.66,27.2209,27.2209,0,0,1,.07-8.26q.06-.54.15-1.08c.04-.29.1-.59.15-.88a36.5752,36.5752,0,0,1,4.2-9.63,58.1217,58.1217,0,0,1,10.68-12.62,79.89,79.89,0,0,1,11.6-8.72q5.655-3.585,11.85-6.93c3.73-2.02,7.5-3.89,11.22-5.59q3.885-1.77,7.88-3.35,3.975-1.575,8.03-2.96a539.4111,539.4111,0,0,1,114.34-25.36c1.74-.19,3.5-.36,5.25-.49a1411.6793,1411.6793,0,0,1,181.88-2.55,284.0612,284.0612,0,0,1,57.68,8.93l13.8,3.62a1558.8246,1558.8246,0,0,0-257.02-.68,425.1051,425.1051,0,0,0-148.78,39.9l-.05.02-.04.03-.05.03-.04.03-.05.03-.04.03-.05.03-.05.03-.04.03-.05.03-.05.03-.04.03-.05.03-.05.03-.04.04-.05.03-.05.03-.05.03-.04.04-.05.03-.05.04-.05.03-.05.03-.05.04-.04.04-.05.03-.05.04-.05.03-.05.04-.05.04-.05.03-.05.04-.05.04-.05.04-.05.03-.05.04-.05.04-.1.08-.05.04-.05.04-.05.04-.1.08-.05.04-.06.04-.05.05-.05.04-.1.08-.05.04-.06.05-.05.04-.05.04-.05.05-.05.04-.06.04-.05.05-.05.04-.05.05-.06.04-.05.05-.05.04-.05.05-.06.04-.05.05-.05.05-.06.04-.05.05-.05.05-.06.04-.05.05-.05.05-.06.05-.05.04-.05.05-.06.05-.05.05-.06.05-.05.05-.05.05-.06.04-.05.05-.06.05-.1.1-.06.05-.16.16-.06.05-.05.05-.06.05-.05.05-.06.05-.05.05-.05.06-.06.05-.05.05-.06.05-.05.06-.06.05-.05.05-.06.05-.05.06-.06.05-.27.27-.06.05-.05.06-.06.05-.05.06-.06.05-.05.06-.06.05-.05.06-.06.05-.05.06-.06.05-.06.06-.05.06-.06.05-.05.06-.06.05-.05.06-.11.11-.11.12-.11.11-.11.12-.11.11-.11.12-.11.11-.11.12-.11.11-.22.24-.11.11-.11.12-.33.36-.11.12-.11.11-.11.12-.1.12-.22.24-.11.12-.1.12-.11.12-.11.13-.11.12-.1.12-.22.24-.1.12-.11.12-.1.13-.11.12-.1.12-.11.12-.1.13-.1.12-.11.12-.1.12-.1.13-.11.12-.1.12-.1.12-.1.13-.1.12-.1.12-.1.13-.2.24-.1.13-.1.12-.1.12-.1.12-.1.13-.09.12-.1.12-.1.12-.04.07-.05.06-.05.06-.05.06-.04.06-.05.06-.05.06-.05.06-.04.07-.05.06-.05.06-.04.06-.1.12-.04.06-.05.06-.04.06-.05.06-.05.06-.04.07-.05.06-.04.06-.05.06-.04.06-.05.06-.04.06-.05.06-.04.06-.05.06-.04.06-.05.06-.04.06-.05.06-.08.12-.05.06-.04.06-.04.06-.05.06-.04.06-.04.06-.05.06-.04.06-.08.12-.05.06-.08.12-.04.06-.04.06-.05.06-.04.06-.08.12-.04.06-.08.12-.04.06-.04.06-.04.05-.04.06-.04.06-.04.06-.08.12-.04.06-.04.06-.04.05-.04.06-.08.12-.04.06-.04.06-.03.05-.08.12-.04.06-.04.06-.03.05-.08.12-.04.06-.03.06-.04.05-.04.06-.03.06-.04.06-.03.05-.04.06-.04.06-.03.05-.04.06-.03.06-.04.06-.03.05-.04.06-.03.06-.04.05-.03.06-.04.06-.03.05-.04.06-.03.06-.03.05-.04.06-.03.05-.03.06-.04.06-.03.05-.03.06-.03.05-.04.06-.03.05-.03.06-.03.06-.03.05-.04.06-.03.05-.03.06-.03.05-.03.06-.03.05-.03.06-.03.05-.03.06-.03.05-.03.06-.03.05-.03.06-.03.05-.03.05-.03.06-.03.05-.03.06-.03.05-.03.05-.02.06-.03.05-.03.06-.03.05-.03.05-.02.06-.03.05-.03.05-.02.06-.03.05-.03.05-.02.06-.03.05-.03.05-.02.06-.03.05-.02.05-.03.05-.02.06-.03.05-.02.05-.03.05-.02.06-.03.05-.02.05-.03.05-.02.06-.03.05-.02.05-.02.05-.03.05-.02.06-.02.05-.02.05-.03.05-.02.05-.02.05-.02.05-.03.06-.02.05-.04.1-.02.05-.02.05-.02.05-.03.05-.04.1-.02.05-.02.05-.02.05-.02.06-.04.1-.01.05-.02.05-.04.1-.02.05-.02.05-.02.05-.02.05-.01.05-.02.05-.02.04-.02.05-.01.05-.02.05-.02.05-.01.05-.04.1-.01.05-.02.05-.02.05-.01.05-.02.05-.01.04-.02.05-.01.05-.02.05-.01.05-.02.05-.01.05-.02.04-.01.05-.02.05-.01.05-.01.05-.02.05-.01.04-.01.05-.02.05-.01.05-.01.05-.01.04-.02.05-.02.1-.01.05-.02.04-.03.15-.01.04-.03.15-.01.04-.02.05-.02.1-.01.04-.01.05v.05l-.01.05-.01.04-.01.05-.01.05-.01.04-.01.05-.01.05-.01.04v.05l-.01.05-.01.05-.01.04-.01.05v.05l-.01.04-.01.05-.01.05c-.03.24-.06.49-.08.73-.02.25-.03.5-.03.74v.11l.01.11v.32l.01.11v.1l.01.11v.1l.01.11.01.11.01.1.01.11.01.11.01.1.01.11.01.1.01.11.01.11.02.1.01.11.02.11.01.1.02.11.02.1.02.11.02.11.01.1.02.11.03.11.02.1.02.11.02.1.02.11.03.11.02.1.03.11.02.11.03.1.03.11.03.11.02.1.03.11.03.11.03.11.03.1.04.11.03.11.03.11.03.1.04.11.03.11.04.11.03.1.04.11.04.11.03.11.04.1.04.11.04.11.08.22.04.11.04.1.05.11.04.11.08.22.05.11.04.11.05.11.05.1.04.11.05.11.1.22.04.11.05.11.1.22.06.11.05.11.05.11.1.22.06.11.05.11.06.11.05.11.06.11.05.11.18.33.05.11.18.33.06.11.12.22.07.11.06.11.12.22.07.11.06.11.07.11.06.11.07.11.06.11.14.22.06.11.07.11.07.11.07.11.14.22.07.11.21.33.07.11.08.1.07.11.07.11.08.11.14.22.08.11.07.11.16.22.07.11.08.11.16.22.07.1.08.11.16.22.08.11.16.22.08.1.09.11.16.22.08.11.09.1.08.11.08.11.09.11.08.1.09.11.08.11.09.1.08.11.09.11.09.11.09.1.08.11.09.1.09.11.09.11.09.1.09.11.09.1.09.11.09.11.09.1.09.11.09.1.09.11.09.1.1.11.09.1.09.11.1.1.09.1.1.11.09.1.09.11.2.2.09.11.1.1.09.1.1.1.1.11.1.1.09.1.1.1.1.11.8.8.1.11.3.3.11.1.1.09.2.2.11.1.2.2.11.1.1.1.11.09.1.1.11.1.1.1.11.09.11.1.1.1.11.09.1.1.11.1.11.09.11.1.1.09.11.1.11.09.11.1.11.09.11.1.11.09.11.1.1.09.11.09.23.19.22.19.22.18.22.19.23.18.22.18.23.18.22.18.23.18.46.36.23.17.23.18.23.17.23.18.24.17.23.17.23.17.24.17.23.17.48.34.24.16.23.17.24.16.24.16.24.17.24.16.24.16.25.15.24.16.24.16.25.15.24.16.24.15.25.15.24.15.25.15.25.15.24.15.25.15.25.14.25.15.25.14.25.15.75.42.25.14.25.13.25.14.25.13.25.14.26.13.25.13.25.13.25.13.26.13.25.13.26.13.25.12.26.13.25.12.26.12.25.12.26.12.25.12.26.12.25.12.26.11.26.12.25.11.26.11.26.11.25.11.26.11.26.11.25.11.26.11.26.1.26.1.25.11.26.1.26.1.26.1.25.1.52.2.26.09.25.1.26.09.26.09.26.1.25.09.52.18.26.09.25.08.26.09.26.09.26.08.25.08.26.09.26.08.25.08.52.16.25.08.26.08.26.07.25.08.26.07.25.08.26.07.25.07.26.08.25.07.26.07.25.07.26.07.25.06.25.07.26.07.25.06.25.07.26.06.25.07.5.12.26.06.25.07.75.18.25.05.5.12.27.06.27.06.54.12.27.06.26.06.54.12.27.06.54.12.27.06.26.05.54.12.27.06.27.05.27.06.27.06.27.05.26.06.27.05.27.06.27.05.27.06.27.05.27.06.27.05.27.06.27.05.27.06.27.05.27.05.27.06.27.05.27.05.27.06.27.05.27.05.27.06.27.05.28.05.27.05.27.05.27.06.27.05.27.05.27.05.28.05.27.05.27.05.27.05.27.05.27.05.28.05.27.05.27.05.27.05.27.05.28.05.27.05.27.05.27.05.27.04.28.05.27.05.27.05.27.05.27.04.28.05.27.05.27.04.27.05.27.05.28.04.27.05.27.04.27.05.27.04.27.05.27.04.28.05.27.04.27.05.27.04.27.05.27.04.27.04.27.05.28.04.27.04.27.04.27.05.27.04.27.04.27.04.27.04.27.05.27.04.27.04.27.04.27.04.27.04.27.04.27.04.27.04.54.08.28.04.27.04.27.04.27.04.27.04.27.04.27.03.27.04.27.04.27.04.27.04.27.04.27.03.27.04.27.04.27.04.27.03.27.04.27.04.27.03.27.04.27.04.27.03.27.04.27.04.27.03.27.04.27.03.27.04.27.04.27.03.27.04.27.03.27.04.27.03.27.04.27.03.27.04.27.03.27.03.27.04.27.03.27.04.27.03.27.03.28.04.27.03.27.04.27.03.27.03.27.04.27.03.27.03.27.03.27.04.27.03.27.03.27.03.27.04.54.06.27.03.27.03.27.03.27.04.27.03.27.03.27.03.27.03.27.03.27.03.27.03.27.03.27.03,1.08.12.54.06,1.08.12.54.06,1.08.12.54.05.54.06.54.06.54.05.54.06.54.05.54.06.54.05.54.05.54.06.54.05.54.05.54.06.54.05.53.05.54.05.54.05,1.08.1.54.05.54.05.54.05,1.08.1.53.04,1.08.1.54.05.54.04q16.59,1.44,33.23,1.9Q921.915,604.015,938.57,603.49Z" transform="translate(-740.1341 -467.7396)" fill="none" stroke="#000" stroke-linecap="round" stroke-linejoin="round" stroke-width="0.7087"/>
  </g>
</svg>
