<svg id="_0" data-name="0" xmlns="http://www.w3.org/2000/svg" width="154.7857mm" height="55.9605mm" viewBox="0 0 438.7625 158.6283">
  <g id="SPLINE">
    <path d="M1179.57,548.17l-1.46-.59-1.47-.58-1.47-.59-1.47-.59-1.47-.58-1.47-.58-1.46-.58-1.48-.58-1.47-.58-1.47-.57-1.47-.58-1.47-.57-1.48-.57-1.47-.57-1.48-.57-1.47-.57-2.96-1.12-1.47-.57-1.48-.56-1.48-.55-1.48-.56-1.48-.56-1.48-.55-1.48-.55-1.48-.55-1.49-.55-1.48-.55-1.48-.54-1.49-.55-1.48-.54-1.49-.54-1.49-.54-1.48-.54-1.49-.53-1.49-.54-1.49-.53-1.49-.53-1.49-.53-1.49-.52-1.49-.53-1.49-.52-1.5-.52-1.49-.52-1.49-.52-1.5-.52-1.49-.51-1.5-.52-1.5-.51-1.49-.51-1.5-.51-1.5-.5-1.5-.51-6-2-1.5-.49-1.51-.5-3-.98-1.51-.49-1.5-.48-1.51-.49-1.51-.48-1.5-.48-3.02-.96-1.51-.47-1.51-.48-1.51-.47-1.51-.47-1.51-.47-1.51-.46-1.52-.47-1.51-.46-1.51-.46-1.52-.46-1.51-.45-1.52-.46-1.52-.45-1.51-.45-1.52-.45-1.52-.45-3.04-.88-1.52-.44-3.04-.88-1.52-.43-1.53-.44-1.52-.43-1.52-.42-1.53-.43-1.52-.42-1.53-.43-1.53-.42-1.52-.42-1.53-.41-1.53-.42-1.53-.41-1.53-.41-1.53-.4-1.53-.41-1.53-.4-1.54-.4-1.53-.4-1.53-.4-1.54-.39-1.53-.4-1.54-.39-1.53-.38-1.54-.39-1.54-.38-1.53-.38-1.54-.38-1.54-.38-1.54-.37-1.54-.38-1.54-.37-1.55-.36-1.54-.37-3.08-.72-1.55-.36-1.54-.35-1.55-.36-1.54-.35-1.55-.35-1.55-.34-1.55-.35-1.55-.34-1.54-.34-1.55-.33-1.56-.34-1.55-.33-1.55-.32-1.55-.33-1.55-.32-1.56-.32-1.55-.32-.78-.16-.78-.16-.77-.16-.78-.15-.78-.16-.78-.15-.78-.16-.78-.15-.77-.15-.78-.15-.78-.16-.78-.15-.78-.15-.78-.15-.78-.14-.78-.15-.78-.15-.78-.15-.78-.14-.78-.15-.78-.14-.78-.15-.78-.14-.78-.14-.78-.14-.79-.14-.78-.14-.78-.14-.78-.14-.78-.14-.78-.14-.79-.13-.78-.14-.78-.14-.78-.13-.79-.13-.78-.14-.78-.13-.79-.13-.78-.13-.78-.13-.79-.13-.78-.13-.79-.13-.78-.12-.79-.13-.78-.13-.79-.12-.78-.12-.79-.13-.78-.12-.79-.12-.78-.12-.79-.12-.78-.12-.79-.12-.79-.12-.78-.11-.79-.12-.79-.12-.78-.11-.79-.11-.79-.12-.78-.11-.79-.11-.79-.11-.79-.11-.79-.11-.78-.1-.79-.11-.79-.11-.79-.1-.79-.11-.79-.1-1.58-.2-.79-.1-.79-.1-.79-.1-.79-.1-.79-.1-.79-.09-.79-.1-.79-.09-.79-.1-1.58-.18-.79-.09-.79-.09-.8-.09-.79-.09-.79-.09-.79-.08-.79-.09-.8-.08-.79-.08-.79-.09-.79-.08-.8-.08-.79-.08-.79-.07-.8-.08-.79-.08-.8-.07-.79-.08-.79-.07-.8-.07-.79-.07-.8-.07-.79-.07-.8-.07-.79-.06-.8-.07-.8-.06-.79-.07-.8-.06-.79-.06-.8-.06-.8-.06-.79-.06-.8-.05-.8-.06-.79-.05-.8-.06-.8-.05-.8-.05-.79-.05-1.6-.1-.8-.04-.8-.05-.79-.04-.8-.04-.8-.04-.8-.04-.8-.04-.8-.04-.8-.03-.8-.04-.8-.03-.8-.03-.8-.03-.8-.03-.81-.03-.8-.03-.8-.02-.8-.02-.8-.03-.8-.02-.81-.02-.8-.01-.8-.02-.8-.01-.81-.02-2.4-.03-.8-.01h-.81l-.8-.01h-4.01l-.8.01h-.81l-.8.01-.81.01-.8.02-.81.01-.81.02-.8.02-.81.02-.81.02-.81.03-.81.02-.81.03-.81.03-.81.04-.81.03-.81.04-1.62.08-.81.04-2.43.15-.8.05-.81.05-.81.05-.8.06-.81.06-1.6.12-.81.06-.8.07-.8.07-.4.04-.4.03-.41.04-.4.04-.4.03-.4.04-.4.04-.4.04-.41.05-.4.04-.4.04-.41.05-.4.04-.4.05-.41.05-.4.04-.41.05-.41.05-.4.05-.41.06-.82.1-.41.06-.41.06-.41.05-.41.06-.41.06-.42.07-.41.06-.41.06-.42.07-.41.06-.42.07-.41.07-.42.07-.41.07-.84.14-.41.07-.42.08-.42.07-.41.08-.42.07-.41.08-.42.08-.41.08-.41.08-.42.08-.41.08-.82.16-.41.09-.41.08-.4.08-.41.09-.4.08-.4.09-.4.09-.4.08-.4.09-.4.09-.39.09-.4.08-.39.09-.04.01-.05.01-.05.02-.04.01-.05.01-.05.01-.04.01-.05.01-.05.02-.04.01-.05.01-.05.01-.05.02-.04.01-.05.01-.05.02-.05.01-.05.02-.05.01-.05.01-.05.02-.05.01-.05.02-.05.01-.05.02-.05.01-.1.04-.05.01-.1.04-.05.01-.05.02-.06.02-.05.01-.05.02-.05.02-.06.02-.05.01-.05.02-.05.02-.06.02-.05.02-.05.02-.06.02-.05.02-.05.02-.06.01-.05.02-.06.02-.05.02-.06.02-.05.03-.05.02-.06.02-.06.02-.05.02-.06.02-.05.02-.06.02-.05.02-.06.03-.05.02-.06.02-.06.02-.05.03-.06.02-.06.02-.05.02-.06.03-.06.02-.05.02-.06.03-.12.04-.05.03-.06.02-.06.03-.06.02-.06.03-.05.02-.06.03-.06.02-.06.03-.06.02-.06.03-.05.02-.06.03-.06.02-.06.03-.06.02-.06.03-.06.03-.06.02-.06.03-.06.03-.06.02-.06.03-.06.03-.06.02-.06.03-.06.03-.06.03-.06.02-.06.03-.06.03-.06.03-.06.03-.06.02-.06.03-.06.03-.06.03-.06.03-.06.03-.06.03-.06.03-.06.02-.06.03-.06.03-.07.03-.06.03-.06.03-.06.03-.06.03-.12.06-.13.06-.24.12-.13.07-.24.12-.13.06-.12.07-.13.06-.12.06-.12.07-.13.06-.12.07-.13.06-.12.07-.13.06-.12.07-.13.06-.12.07-.13.07-.12.07-.13.06-.12.07-.13.07-.12.07-.12.07-.13.06-.12.07-.13.07-.12.07-.13.07-.12.07-.13.07-.12.07-.12.07-.13.08-.12.07-.13.07-.24.14-.13.07-.12.08-.12.07-.13.07-.12.07-.12.08-.12.07-.13.07-.12.07-.12.08-.12.07-.12.08-.12.07-.12.07-.12.08-.13.07-.12.08-.12.07-.12.08-.11.07-.12.07-.12.08-.12.07-.12.08-.12.08-.11.07-.12.08-.12.07-.12.08-.11.07-.12.08-.11.07-.12.08-.11.08-.12.07-.11.08-.12.07-.11.08-.11.08-.12.07-.11.08-.11.08-.11.07-.12.08-.11.07-.11.08-.11.08-.11.07-.22.16-.1.07-.11.08-.11.08-.11.07-.1.08-.11.08-.05.04-.06.03-.05.04-.1.08-.06.04-.05.04-.05.03-.05.04-.05.04-.06.04-.1.08-.05.03-.05.04-.05.04-.05.04-.06.04-.05.04-.05.03-.05.04-.05.04-.05.04-.05.04-.05.04-.05.03-.05.04-.05.04-.05.04-.05.04-.05.03-.05.04-.05.04-.04.04-.05.04-.05.04-.05.03-.1.08-.05.04-.04.04-.05.04-.05.03-.05.04-.05.04-.04.04-.05.04-.05.03-.04.04-.05.04-.05.04-.05.04-.04.03-.05.04-.04.04-.05.04-.05.04-.04.03-.05.04-.04.04L762,485l-.04.04-.05.03-.04.04-.05.04-.04.04-.05.04-.04.03-.05.04-.04.04-.05.04-.04.04-.04.03-.05.04-.04.04-.04.04-.05.04-.04.03-.04.04-.05.04-.04.04-.04.03-.04.04-.05.04-.08.08-.04.03-.04.04-.05.04-.04.04-.04.03-.04.04-.04.04-.04.04-.04.03-.16.16-.04.03-.12.12-.04.03-.12.12-.04.03-.04.04-.04.04-.03.04-.04.03-.04.04-.04.04-.11.11-.04.04-.04.03-.03.04-.04.04-.04.04-.03.03-.04.04-.04.04-.03.04-.04.03-.04.04-.03.04-.04.03-.03.04-.04.04-.03.04-.04.03-.03.04-.04.04-.07.07-.03.04-.03.04-.04.03-.03.04-.04.04-.03.03-.03.04-.04.04-.03.04-.03.03-.04.04-.03.04-.03.03-.03.04-.04.04-.03.04-.03.03-.03.04-.03.04-.03.03-.04.04-.03.04-.03.03-.03.04-.03.04-.03.03-.03.04-.03.04-.03.04-.03.03-.03.04-.03.04-.03.03-.03.04-.03.04-.03.03-.03.04-.03.04-.03.03-.02.04-.03.04-.03.03-.03.04-.03.04-.03.04-.02.03-.03.04-.03.04-.03.03-.02.04-.03.04-.03.03-.02.04-.03.04-.03.03-.02.04a9.7141,9.7141,0,0,0-1.35,2.64,9.2122,9.2122,0,0,0-.47,2.93v.31l.01.11v.2l.01.11v.1l.01.1.01.11v.1l.01.11.01.1.01.11.01.1.01.11.01.1.01.11.02.1.01.11.02.1.01.11.02.11.01.1.02.11.02.1.01.11.02.11.02.11.02.1.02.11.03.11.02.1.04.22.03.11.02.11.03.11.02.11.03.1.03.11.02.11.03.11.03.11.03.11.03.11.03.11.03.11.04.11.03.11.03.11.04.12.03.11.04.11.03.11.04.11.04.11.03.12.04.11.04.11.04.11.04.12.04.11.04.11.04.12.05.11.04.12.04.11.05.11.04.12.05.11.04.12.05.11.05.12.04.11.05.12.05.11.1.24.05.11.05.12.05.11.06.12.05.12.05.11.06.12.05.12.06.12.05.11.12.24.05.12.06.11.06.12.06.12.12.24.06.12.06.11.12.24.07.12.12.24.07.12.06.12.07.12.07.12.06.12.42.72.07.12.07.12.07.12.14.24.08.13.07.12.08.12.07.12.08.12.07.12.08.13.07.12.24.36.08.13.16.24.08.12.08.12.08.13.08.12.09.12.08.13.08.12.09.12.08.12.09.13.08.12.09.12.09.13.08.12.09.12.09.13.09.12.09.12.09.13.09.12.09.12.09.13.18.24.1.13.09.12.09.13.1.12.09.12.1.13.1.12.09.13.1.12.1.12.09.13.1.12.1.13.1.12.1.13.1.12.1.12.1.13.1.12.11.13.1.12.1.13.11.12.1.13.11.12.1.12.11.13.1.12.11.13.11.12.1.13.11.12.11.13.11.12.11.13.11.12.11.12.11.13.11.12.11.13.12.12.11.13.11.12.12.13.11.12.11.13.12.12.12.12.11.13.12.12.11.13.12.12.12.13.12.12.12.13.24.24.12.13.12.12.12.13.12.12.12.13.13.12.12.12.12.13.13.12.12.13.13.12.5.5.13.12.25.25.13.12.13.12.13.13.26.24.13.13.26.24.14.13.26.24.13.13.14.12.13.12.14.13.13.12.14.12.14.12.13.13.14.12.14.12.13.12.14.13.14.12.28.24.14.13.14.12.28.24.15.12.14.13.28.24.15.12.14.12.15.12.14.12.15.13.14.12.15.12.15.12.14.12.15.12.3.24.15.12.15.12.15.12.3.24.15.12.15.12.15.12.15.12.16.12.3.24.16.12.15.12.16.12.15.12.16.12.16.12.15.12.16.11.32.24.15.12.16.12.16.12.16.11.16.12.16.12.16.12.17.11.16.12.16.12.16.12.17.11.32.24.17.11.16.12.17.12.16.11.34.24.16.11.17.12.17.11.17.12.17.11.17.12.16.11.17.12.18.11.17.12.17.11.17.12.17.11.17.12.18.11.17.11.17.12.18.11.17.12.18.11.17.11.18.12.18.11.17.11.18.11.18.12.18.11.17.11.18.11.18.12.18.11.54.33.19.11.18.11.18.12.18.11.19.11.36.22.19.11.18.11.19.11.18.11.38.22.18.1.38.22.19.11.19.11.18.11.19.11.19.1.19.11.2.11.19.11.19.1.38.22.2.11.19.1.19.11.2.11.19.1.2.11.19.1.2.11.19.11.2.1.2.11.2.1.19.11.2.1.2.1.2.11.2.1.2.11.2.1.2.1.2.11.21.1.2.1.2.11.2.1.21.1.2.1.21.11.2.1.21.1.2.1.21.1.2.1.21.1.21.11.21.1.21.1.2.1.21.1.21.1.21.1.21.1.21.1.22.09.21.1.21.1.21.1.22.1.21.1.21.09.22.1.21.1.22.1.21.09.22.1.22.1.21.09.22.1.22.1.22.09.22.1.21.09.22.1.22.1.22.09.23.1.22.09.22.09.22.1.22.09.23.1.22.09.22.09.23.1.22.09.23.09.23.09.22.1.23.09.23.09.22.09.23.09.23.1.23.09.23.09.23.09.23.09.23.09.23.09.23.09.23.09.24.09.23.09.23.09.24.08.23.09.24.09.23.09.24.09.23.09.24.08.24.09.23.09.24.08.24.09.24.09.24.08.24.09.24.08.24.09.24.09.24.08.24.09.25.08.24.09.24.08.25.08.24.09.25.08.24.08.25.09.24.08.25.08.25.09.24.08.25.08.25.08.25.08.25.09.25.08.64.2.65.21.64.21.65.2.64.21.64.2.65.2.64.2.65.21.64.2.65.2.64.19.65.2.64.2.65.19.65.2.64.2.65.19.64.19.65.2.65.19.64.19,1.3.38.65.19.64.19.65.19.65.18.64.19.65.19.65.18.65.18.64.19.65.18.65.18.65.18.64.19.65.18.65.18.65.17.64.18.65.18.65.18.65.17.65.18.64.17.65.18.65.17,1.29.35,1.3.34,1.3.35,1.29.34,1.3.33,1.3.34,1.29.33,1.3.33,2.6.66,1.29.33,1.3.32,1.3.33,1.3.32,1.29.31,2.6.64,1.3.31,1.3.31,1.3.31,1.29.31,1.3.31,1.3.3,1.3.31,1.3.3,1.3.3,1.3.3,1.29.3,1.3.3,1.3.29,1.3.3,1.3.29,1.3.29,2.6.58,1.3.29,1.3.28,1.3.29,1.3.28,1.29.29,1.3.28,1.3.28,1.3.28,1.3.28,1.3.27,1.3.28,1.3.27,1.3.28,1.3.27,1.3.27,1.3.27,1.3.27,1.3.27,2.6.54,1.3.26,1.3.27,1.3.26,1.3.27,1.3.26,1.3.26,1.3.26,1.3.26,1.29.26,1.3.26,1.3.26,1.3.25,1.3.26,1.3.25,1.3.26,1.3.25,1.3.25,1.3.26,2.6.5,1.3.25,2.6.5,1.3.24,1.3.25,1.3.25,1.3.24,1.3.25,1.3.24,1.3.25,1.3.24,1.3.24,1.29.25,1.3.24,1.3.24,2.6.48,2.6.48,2.6.47,2.6.48,2.6.47,2.6.47,2.59.47,2.6.47,2.6.46,2.6.46,2.6.46,2.59.46,2.6.46,2.6.46,2.6.45,2.6.46,2.59.45,2.6.45,2.6.45,2.59.45,2.6.45,2.6.44,2.6.45,2.59.44,2.6.44,2.6.45,2.59.44,2.6.44,2.59.44,2.6.43,2.6.44,2.59.44,2.6.44,2.59.43,2.6.43,2.6.44,2.59.43,5.19.87,15.57,2.58,5.19.86,5.19.86,5.19.85,5.18.86,5.19.85,10.37,1.71,10.37,1.71,5.19.86,5.18.85,5.19.86,5.18.86h-20.3q-11.625,0-23.21-.96-11.58-.945-23.05-2.84-10.2151-1.695-20.45-3.4c-45.47-7.58-91.04-15.31-136.72-24.5-27.22-5.47-54.48-11.43-81.76-18.84-13.07-3.55-26.12-7.41-39.24-12.05-5.84-2.07-11.56-4.2-17.37-6.6-5.22-2.16-10.68-4.7-15.86-7.36-3.77-1.94-7.26-3.81-10.88-6.04a76.9116,76.9116,0,0,1-11.34-8.41,50.76,50.76,0,0,1-10.91-13.33,29.7058,29.7058,0,0,1-3.76-14.47,26.76,26.76,0,0,1,1.02-6.8,23.6753,23.6753,0,0,1,1.34-3.88,24.53,24.53,0,0,1,1.81-3.41,37.8414,37.8414,0,0,1,5.22-5.42,57.3966,57.3966,0,0,1,14.16-8.7,79.514,79.514,0,0,1,14.28-4.77q6.42-1.575,13.29-2.77c5.34-.94,10.64-1.6,15.75-2.06,6.4-.58,12.77-.95,19.18-1.14,11.14-.35,22.08-.13,33.01.4,20.42,1,40.58,3.18,60.57,6.11a948.76,948.76,0,0,1,107.23,22.49c29.08,7.76,57.8,16.65,86.18,26.46a283.8546,283.8546,0,0,1,53.26,24.86Z" transform="translate(-741.1619 -460.276)" fill="none" stroke="#000" stroke-linecap="round" stroke-linejoin="round" stroke-width="0.7087"/>
  </g>
</svg>
