<svg id="_0" data-name="0" xmlns="http://www.w3.org/2000/svg" width="195.483mm" height="61.1246mm" viewBox="0 0 554.1249 173.2666">
  <g id="SPLINE">
    <path d="M1223.58,620.86l2,.08-14.63,2.09q-12.24,1.74-24.6,2.42-12.33.675-24.71.27-13.695-.45-27.38-.87c-31.96-.98-63.94-1.84-95.96-2.79-48.38-1.42-96.87-2.91-145.68-5.85-29.74-1.78-59.61-4.06-89.72-7.94-14.14-1.82-28.32-3.98-42.69-6.98-6.08-1.27-12.05-2.63-18.16-4.25-5.62-1.49-11.55-3.35-17.16-5.36-4.06-1.45-7.81-2.87-11.84-4.72a74.8861,74.8861,0,0,1-12.18-6.95,48.5345,48.5345,0,0,1-12.34-12.05,29.187,29.187,0,0,1-4.98-12.87,27.1324,27.1324,0,0,1,.41-8.68c.02-.14.04-.29.06-.43a1.6958,1.6958,0,0,0,.04-.22,37.6223,37.6223,0,0,1,5.35-11.81,61.2156,61.2156,0,0,1,10.64-11.94,89.4218,89.4218,0,0,1,13.84-9.88c3.91-2.38,8.11-4.77,12.33-6.95,5.43-2.81,10.74-5.17,16.08-7.4,8.59-3.59,17.4-6.84,26.14-9.71,15.57-5.1,31.33-9.32,47.13-12.92a806.806,806.806,0,0,1,88.29-14.72,1174.899,1174.899,0,0,1,141.71-7.08c2.06.02,4.12.05,6.18.12q3.09.09,6.18.25,3.09.15,6.17.39,3.09.225,6.17.53c2.05.19,4.1.42,6.15.66,2.04.25,4.09.51,6.13.8q3.06.45,6.11.94,3.06.51,6.1,1.08,37.74,7.11,75.06,16.27a283.4986,283.4986,0,0,1,56.15,20.25l10.82,5.25q-74.34-20.67-150.35-34.54-9.66-1.755-19.42-2.85-9.765-1.095-19.58-1.5-16.4849-.69-33-.42l-1.19.02-1.18.02-1.19.02-1.18.02-1.19.03-1.18.02-1.19.03-1.18.03-1.19.03-1.18.03-1.19.03-1.18.03-1.19.03-1.18.04-1.19.03-1.18.04-1.19.04-1.18.04-1.19.04-1.18.04-1.19.04-1.18.04-1.19.05-1.18.04-1.19.05-1.18.05-1.18.05-1.19.05-1.18.05-1.19.05-1.18.06-1.19.05-1.18.06-1.19.05-1.18.06-1.19.06-1.18.06-1.18.07-1.19.06-1.18.06-1.19.07-1.18.07-1.19.07-1.18.07-1.18.07-1.19.07-1.18.07-1.19.08-1.18.07-1.18.08-1.19.08-1.18.08-1.19.08-1.18.08-1.18.08-1.19.09-1.18.08-1.18.09-1.19.09-2.36.18-1.19.09-1.18.09-1.18.1-1.19.09-2.36.2-1.18.1-1.19.1-1.18.1-1.18.11-1.19.1-1.18.11-3.54.33-1.19.11-1.18.11-1.18.12-1.18.11-1.18.12-1.19.12-3.54.36-1.18.13-1.18.12-2.36.26-1.18.13-1.19.13-1.18.13-1.18.14-1.18.13-1.18.14-1.18.14-3.54.42-1.18.15-1.18.15-1.17.14-1.18.15-1.18.15-1.18.15-1.18.16-1.18.15-1.18.16-1.18.16-1.17.16-1.18.16-1.18.16-1.18.17-1.18.16-1.17.17-2.36.34-1.17.17-1.18.18-1.18.17-1.17.18-2.36.36-1.17.18-1.18.19-1.17.18-1.18.19-1.17.19-1.18.19-1.17.19-1.18.2-1.17.19-1.17.2-1.18.2-1.17.2-1.18.2-1.17.21-1.17.2-1.17.21-1.18.21-1.17.21-1.17.22-1.17.21-1.17.22-1.18.22-1.17.22-1.17.22-2.34.46-1.17.22-1.17.24-2.34.46-1.16.24-.59.12-.58.12-.59.12-.58.12-.59.12-.58.12-.58.12-.59.13-.58.12-.58.12-.59.13-.58.12-.58.13-.59.12-.58.13-.58.13-.59.12-.58.13-.58.13-.59.13-.58.13-.58.13-.58.13-.59.13-.58.13-.58.14-.58.13-.58.13-.59.14-.58.13-.58.14-.58.13-.58.14-.59.13-1.16.28-.58.14-.58.14-1.16.28-.58.14-.58.14-.59.14-.58.14-.58.15-.58.14-.58.15-.58.14-.58.15-.58.14-.58.15-.58.15-.58.14-.58.15-.58.15-.57.15-.58.15-.58.15-.58.16-.58.15-.58.15-.58.16-.57.15-.58.15-.58.16-.58.16-.58.15-.57.16-.58.16-.58.16-.58.16-.57.16-.58.16-.58.16-.57.16-.58.17-.58.16-.57.17-.58.16-.58.17-.57.17-.58.16-.58.17-.57.17-.58.17-.57.17-.58.17-.57.18-.58.17-.57.17-.58.18-.57.17-.58.18-.57.18-.58.17-1.14.36-.58.18-1.14.36-.58.19-1.14.36-.57.19-.57.18-.58.19-.57.19-.57.18-2.85.95-.57.2-.57.19-.57.19-.57.2-.56.2-.57.19-.57.2-1.14.4-.57.21-.57.2-.56.2-.57.21-.57.2-.57.21-.57.21-.56.21-.57.21-.57.22-.57.21-.56.21-.57.22-.57.22-.57.22-.56.22-.57.22-.57.22-.56.22-.57.22-.56.23-.57.23-.56.22-.56.23-.56.23-.57.23-.56.23-.56.23-1.12.46-.55.24-.56.23-.56.24-.55.23-.56.24-.55.24-.56.24-1.1.48-.55.24-.56.25-.55.24-1.65.75-.28.13-.27.13-.28.12-.27.13-.28.13-.27.13-.28.13-.28.13-.27.13-.28.13-.27.14-.28.13-.28.13-.27.14-.28.13-.28.14-.27.14-.28.13-.28.14-.28.14-.27.14-.28.14-.28.14-.28.14-.27.14-.28.15-.28.14-.28.14-.28.15-.28.15-.27.14-.28.15-.28.15-.28.14-.28.15-.28.15-.27.15-.28.15-.28.16-.28.15-.28.15-.27.15-.28.16-.28.15-.27.15-.28.16-.28.15-.27.16-.28.15-.27.16-.28.15-.27.16-.27.16-.28.15-.54.32-.27.15-.27.16-.27.16-.27.16-.26.15-.27.16-.27.16-.26.16-.27.15-.26.16-.26.16-.27.16-.26.15-.26.16-.26.16-.25.16-.26.15-.26.16-.04.03-.05.03-.05.03-.04.03-.05.03-.05.03-.04.03-.05.03-.05.03-.04.03-.05.03-.05.03-.05.04-.04.03-.05.03-.05.04-.05.03-.05.03-.05.04-.05.03-.04.04-.05.03-.05.04-.05.04-.05.03-.05.04-.05.04-.05.03-.05.04-.05.04-.05.04-.1.08-.05.03-.06.04-.05.04-.05.04-.05.04-.05.05-.05.04-.05.04-.05.04-.06.04-.05.04-.05.04-.05.05-.06.04-.05.04-.05.05-.05.04-.06.04-.05.05-.05.04-.05.05-.06.04-.05.05-.05.04-.06.05-.05.04-.05.05-.06.05-.05.04-.06.05-.05.05-.05.04-.06.05-.05.05-.06.05-.05.05-.05.04-.06.05-.05.05-.06.05-.05.05-.06.05-.05.05-.06.05-.05.05-.06.05-.05.05-.06.05-.05.05-.06.05-.05.05-.11.11-.06.05-.05.05-.06.05-.05.06-.06.05-.05.05-.06.05-.05.06-.12.1-.05.06-.06.05-.05.05-.06.06-.05.05-.06.06-.06.05-.05.06-.06.05-.05.06-.06.05-.06.06-.05.05-.06.06-.05.05-.23.23-.05.06-.06.05-.06.06-.05.06-.06.05-.05.06-.06.06-.06.05-.05.06-.06.06-.05.06-.06.06-.06.05-.05.06-.06.06-.11.12-.11.11-.11.12-.12.12-.11.12-.44.48-.12.12-.11.12-.22.24-.11.12-.11.12-.11.13-.22.24-.11.12-.11.13-.22.24-.11.13-.1.12-.11.13-.11.12-.11.13-.11.12-.1.13-.11.12-.11.13-.1.12-.11.13-.11.12-.1.13-.11.12-.1.13-.11.12-.1.13-.1.13-.11.12-.1.13-.1.12-.1.13-.11.12-.2.26-.1.12-.1.13-.1.12-.2.26-.05.06-.04.06-.05.06-.05.07-.05.06-.05.06-.05.07-.1.12-.04.06-.05.07-.1.12-.04.06-.05.07-.1.12-.04.06-.05.07-.1.12-.04.06-.05.07-.05.06-.04.06-.05.06-.04.06-.05.07-.05.06-.04.06-.05.06-.04.06-.05.07-.04.06-.05.06-.04.06-.05.06-.04.07-.05.06-.04.06-.05.06-.08.12-.05.07-.08.12-.05.06-.04.06-.04.06-.05.06-.04.06-.04.07-.05.06-.04.06-.08.12-.04.06-.05.06-.04.06-.04.06-.08.12-.04.06-.08.12-.04.06-.05.06-.04.06-.04.07-.08.12-.04.06-.03.05-.04.06-.08.12-.04.06-.04.06-.04.06-.08.12-.03.06-.08.12-.04.06-.04.06-.03.06-.04.06-.04.05-.03.06-.04.06-.04.06-.03.06-.04.06-.04.06-.03.05-.04.06-.03.06-.04.06-.03.06-.04.05-.03.06-.04.06-.03.06-.04.06-.03.05-.04.06-.03.06-.03.06-.04.05-.03.06-.03.06-.04.06-.03.05-.03.06-.04.06-.03.05-.03.06-.03.06-.03.05-.04.06-.03.06-.03.05-.03.06-.03.06-.03.05-.03.06-.03.05-.06.12-.03.05-.03.06-.03.05-.03.06-.03.05-.03.06-.03.05-.03.06-.03.05-.03.06-.03.05-.02.06-.03.05-.03.06-.03.05-.03.06-.02.05-.03.06-.03.05-.02.06-.03.05-.03.06-.02.05-.03.05-.02.06-.03.05-.03.05-.02.06-.03.05-.02.06-.03.05-.02.05-.03.06-.02.05-.02.05-.03.06-.02.05-.03.05-.02.06-.02.05-.03.05-.02.05-.02.06-.02.05-.03.05-.02.05-.02.06-.02.05-.03.05-.02.05-.02.05-.02.06-.02.05-.02.05-.04.1-.02.06-.04.1-.02.05-.02.05-.04.1-.02.06-.02.05-.02.05-.02.05-.02.05-.01.05-.02.05-.02.05-.04.1-.01.05-.02.05-.02.06-.01.05-.02.05-.02.05-.01.05-.02.05-.02.05-.01.05-.02.05-.01.05-.02.05-.01.05-.02.05-.01.05-.02.05-.01.04-.02.05-.01.05-.02.05-.01.05-.01.05-.02.05-.01.05-.01.05-.02.05-.01.05-.01.05-.02.05-.01.04-.01.05-.02.1-.02.05-.01.05-.01.05-.01.05-.01.04-.01.05-.01.05-.03.15-.01.04-.01.05-.01.05-.02.1-.01.05-.01.04-.01.05-.01.05-.01.05-.01.05-.01.04v.05l-.01.05-.01.05-.01.05v.04l-.01.05-.01.05-.01.05v.04l-.01.05-.01.05v.05l-.01.05-.01.04v.05l-.01.05v.05l-.01.04-.01.05a2.2856,2.2856,0,0,1-.02.25c-.01.08-.01.16-.02.24v.11l-.02.22v.21l-.01.11v.65l.01.1v.22l.01.11.01.1v.11l.01.11.01.11v.1l.01.11.02.22.02.1.01.11.02.22.02.1.01.11.02.11.01.11.02.11.02.1.02.11.01.11.02.11.02.11.02.1.03.11.02.11.04.22.03.11.02.1.03.11.02.11.03.11.03.11.02.11.03.11.03.11.03.11.03.1.03.11.03.11.04.11.03.11.03.11.04.11.03.11.04.11.03.11.04.11.03.11.04.11.04.11.04.12.04.11.04.11.04.11.04.11.04.11.04.11.04.11.05.11.04.12.05.11.04.11.05.11.04.11.05.11.05.12.04.11.05.11.05.11.05.11.05.12.1.22.05.11.05.12.06.11.1.22.06.12.05.11.06.11.05.11.06.12.05.11.06.11.06.12.06.11.05.11.06.11.06.12.12.22.06.12.07.11.06.11.06.12.06.11.07.11.06.11.06.12.07.11.06.11.07.12.07.11.06.11.07.12.14.22.06.11.07.12.07.11.07.11.07.12.07.11.08.11.07.11.07.12.14.22.08.11.07.12.08.11.07.11.08.11.07.11.08.12.07.11.08.11.08.11.07.11.08.12.08.11.16.22.08.11.08.11.08.12.08.11.08.11.08.11.09.11.08.11.08.11.08.11.09.11.08.11.09.11.08.11.09.11.08.11.09.11.08.11.09.11.09.11.08.11.09.11.18.22.09.11.09.11.08.11.09.1.09.11.1.11.09.11.18.22.09.1.09.11.1.11.09.11.09.1.1.11.09.11.09.1.1.11.09.11.1.1.09.11.1.1.1.11.09.11.1.1.1.11.09.1.1.11.1.1.1.11.1.1.09.11.1.1.1.1.1.11.1.1.1.1.1.11.1.1.11.1.1.11.1.1.1.1.1.1.11.11.1.1.1.1.11.1.1.1.1.1.11.1.1.1.11.1.1.1.11.1.1.1.11.1.11.1.1.1.11.1.11.1.1.1.22.2.11.09.1.1.11.1.11.1.11.09.11.1.11.1.11.09.11.1.11.09.11.1.11.1.11.09.11.1.11.09.11.1.11.09.11.09.12.1.11.09.11.1.11.09.12.09.11.09.11.1.12.09.11.09.11.09.12.09.11.1.12.09.23.18.69.54.23.17.23.18.24.18.23.17.24.17.23.18.24.17.24.17.24.17.23.17.24.16.48.34.25.16.24.16.24.16.24.17.24.16.25.15.24.16.25.16.24.15.25.16.24.15.25.16.25.15.24.15.25.15.25.14.25.15.25.15.25.14.25.15.5.28.25.14.75.42.26.13.25.14.5.26.26.14.25.13.26.13.25.12.25.13.26.13.25.12.26.13.25.12.26.12.25.12.26.12.25.12.26.12.26.12.25.11.26.12.26.11.25.11.26.11.26.11.25.11.26.11.26.11.25.11.26.1.26.11.25.1.52.2.25.1.26.1.26.1.25.1.26.1.26.09.26.1.25.09.26.09.26.09.25.09.26.09.25.09.26.09.26.09.25.09.26.08.25.09.26.08.26.08.25.08.26.09.25.08.26.08.25.08.26.07.5.16.26.07.25.08.26.07.25.08.5.14.26.07.25.07.25.07.5.14.26.07.25.07.25.06.5.14,2.01.51,2.02.5,2.02.49,2.02.48,2.03.46,2.03.46,2.04.45,2.05.43,2.04.43,2.04.41,2.04.41,2.04.39,2.03.38,2.03.37,2.04.36,2.03.35,2.03.34,2.03.34,2.03.33,2.04.32,2.03.32,2.03.3,2.04.31,2.03.29,2.03.29,2.04.28,2.03.28,2.03.27,2.03.26,2.03.26,2.03.26,2.03.25,2.03.24,2.03.24,2.02.24,2.03.23,2.03.23,2.03.22,2.03.22,2.02.21,2.03.21,2.03.2,2.02.21,2.03.2,2.02.19L838,605l2.02.19,2.03.18,2.02.19,2.03.17,2.02.18,2.02.17,2.03.17,2.02.17,2.02.16,2.02.16,2.03.16,2.02.15,2.02.16,2.02.15,2.02.15,2.02.14,2.02.14,2.02.15,2.02.13,2.02.14,2.02.14,2.02.13,2.01.13,2.02.13,2.02.12,2.02.13,2.01.12,2.02.12,2.02.12,2.02.12,2.01.11,2.02.12,2.01.11,2.02.11,2.01.11,2.02.11,2.01.1,2.02.11,2.01.1,2.02.1,2.01.1,2.02.1,2.01.1,2.01.09,2.02.1,2.01.09,2.01.1,2.01.09,2.02.09,2.01.09,2.01.08,2.01.09,2.01.09,2.02.08,2.01.09,2.01.08,2.01.08,2.01.08,4.02.16,2.01.08,2.01.08,2.01.08,2.01.07,2.01.08,2.01.07,2.01.08,2.01.07,2,.07,2.01.07,2.01.07,2.01.08,2.01.07,2.01.06,2,.07,2.01.07,2.01.07,2.01.07,2.01.06,2,.07,2.01.06,2.01.07,2,.06,2.01.07,2.01.06,2,.06,2.01.07,2.01.06,2,.06,2.01.06,2,.06,2.01.07,2.01.06,2,.06,2.01.06,2,.06,2.01.06,2,.06,2.01.06,2,.05,2.01.06,2,.06,2.01.06,2,.06,2.01.06,2,.05,2.01.06,2,.06,2.01.06,2,.05,2.01.06,4,.12,2.01.05,2,.06,2.01.06,2,.06,2,.05,2.01.06,2,.06,2,.05,2.01.06,4,.12,2.01.05,4,.12,2.01.06,2,.05,2,.06,2.01.06,2,.06,2,.05,2.01.06,4,.12,2.01.06,6,.18,2.01.06,4,.12,2.01.06,6,.18,2.01.06,6,.18,2.01.07,6,.18,2.01.07,2,.06,2,.07,2,.06,2.01.07,2,.06,2,.07,2,.06,2.01.07,2,.07,2,.06,2,.07,2.01.07,2,.07,4,.14,2.01.07,6,.21,2.01.07,2,.07,2,.07,2,.08,2,.07,2.01.07,2,.08,2,.07,2.01.08,2,.07,2.01.08,2,.08,2,.07,6,.24Z" transform="translate(-683.0194 -452.9596)" fill="none" stroke="#000" stroke-linecap="round" stroke-linejoin="round" stroke-width="0.7087"/>
  </g>
</svg>
